M48
; DRILL file {KiCad (6.0.7)} date Wed Aug 10 19:12:15 2022
; FORMAT={-:-/ absolute / metric / decimal}
; #@! TF.CreationDate,2022-08-10T19:12:15+02:00
; #@! TF.GenerationSoftware,Kicad,Pcbnew,(6.0.7)
; #@! TF.FileFunction,Plated,1,2,PTH
FMAT,2
METRIC
; #@! TA.AperFunction,Plated,PTH,ViaDrill
T1C0.400
; #@! TA.AperFunction,Plated,PTH,ComponentDrill
T2C0.500
; #@! TA.AperFunction,Plated,PTH,ComponentDrill
T3C0.762
; #@! TA.AperFunction,Plated,PTH,ComponentDrill
T4C0.800
; #@! TA.AperFunction,Plated,PTH,ComponentDrill
T5C1.300
%
G90
G05
T1
X48.26Y-110.744
X50.292Y-125.984
X50.8Y-117.856
X51.816Y-113.284
X56.896Y-126.492
X58.42Y-144.78
X59.69Y-144.78
X65.532Y-110.744
X67.564Y-117.856
X68.58Y-112.776
X68.58Y-121.412
T2
X30.48Y-163.83
X30.48Y-167.64
X33.02Y-148.59
X36.83Y-148.59
X67.31Y-148.59
X69.85Y-148.59
X72.39Y-148.59
X74.93Y-148.59
X81.28Y-148.59
T3
X30.48Y-154.305
X30.48Y-156.845
X30.48Y-159.385
X30.48Y-172.72
X30.48Y-175.26
X30.48Y-177.8
X30.48Y-180.34
X30.48Y-182.88
X76.2Y-176.53
X76.2Y-179.07
X76.2Y-181.61
X86.995Y-151.13
X86.995Y-160.02
X86.995Y-168.91
X86.995Y-181.61
X92.075Y-151.13
X92.075Y-160.02
X92.075Y-168.91
X92.075Y-181.61
T4
X40.64Y-149.86
X41.91Y-177.84
X41.91Y-182.84
X42.0Y-172.72
X46.88Y-172.72
X46.99Y-177.84
X46.99Y-182.84
X50.8Y-149.86
X54.62Y-149.87
X54.62Y-152.41
X54.62Y-154.95
X54.62Y-157.49
X54.62Y-160.03
X54.62Y-162.57
X54.62Y-165.11
X54.62Y-167.65
X54.62Y-170.19
X54.62Y-172.73
X54.62Y-175.27
X54.62Y-177.81
X54.62Y-180.35
X54.62Y-182.89
X62.24Y-149.87
X62.24Y-152.41
X62.24Y-154.95
X62.24Y-157.49
X62.24Y-160.03
X62.24Y-162.57
X62.24Y-165.11
X62.24Y-167.65
X62.24Y-170.19
X62.24Y-172.73
X62.24Y-175.27
X62.24Y-177.81
X62.24Y-180.35
X62.24Y-182.89
X67.31Y-156.21
X67.31Y-161.29
X67.31Y-166.37
X67.31Y-171.45
X68.58Y-176.53
X68.58Y-179.03
X68.58Y-182.92
X68.58Y-185.42
X77.47Y-156.21
X77.47Y-161.29
X77.47Y-166.37
X77.47Y-171.45
T5
X29.891Y-130.81
X49.891Y-130.81
X64.181Y-130.81
X84.181Y-130.81
T0
M30
