%TF.GenerationSoftware,KiCad,Pcbnew,(6.0.7)*%
%TF.CreationDate,2022-08-10T19:12:16+02:00*%
%TF.ProjectId,MAKE_PCB,4d414b45-5f50-4434-922e-6b696361645f,rev?*%
%TF.SameCoordinates,Original*%
%TF.FileFunction,Drillmap*%
%TF.FilePolarity,Positive*%
%FSLAX45Y45*%
G04 Gerber Fmt 4.5, Leading zero omitted, Abs format (unit mm)*
G04 Created by KiCad (PCBNEW (6.0.7)) date 2022-08-10 19:12:16*
%MOMM*%
%LPD*%
G01*
G04 APERTURE LIST*
%ADD10C,0.200000*%
G04 APERTURE END LIST*
D10*
X2540000Y-18923000D02*
X9398000Y-18923000D01*
X9398000Y-18923000D02*
X9398000Y-9398000D01*
X9398000Y-9398000D02*
X2540000Y-9398000D01*
X2540000Y-9398000D02*
X2540000Y-18923000D01*
X2787619Y-19243476D02*
X2787619Y-19043476D01*
X2835238Y-19043476D01*
X2863809Y-19053000D01*
X2882857Y-19072048D01*
X2892381Y-19091095D01*
X2901905Y-19129190D01*
X2901905Y-19157762D01*
X2892381Y-19195857D01*
X2882857Y-19214905D01*
X2863809Y-19233952D01*
X2835238Y-19243476D01*
X2787619Y-19243476D01*
X2987619Y-19243476D02*
X2987619Y-19110143D01*
X2987619Y-19148238D02*
X2997143Y-19129190D01*
X3006667Y-19119667D01*
X3025714Y-19110143D01*
X3044762Y-19110143D01*
X3111428Y-19243476D02*
X3111428Y-19110143D01*
X3111428Y-19043476D02*
X3101905Y-19053000D01*
X3111428Y-19062524D01*
X3120952Y-19053000D01*
X3111428Y-19043476D01*
X3111428Y-19062524D01*
X3235238Y-19243476D02*
X3216190Y-19233952D01*
X3206667Y-19214905D01*
X3206667Y-19043476D01*
X3340000Y-19243476D02*
X3320952Y-19233952D01*
X3311428Y-19214905D01*
X3311428Y-19043476D01*
X3568571Y-19243476D02*
X3568571Y-19043476D01*
X3635238Y-19186333D01*
X3701905Y-19043476D01*
X3701905Y-19243476D01*
X3882857Y-19243476D02*
X3882857Y-19138714D01*
X3873333Y-19119667D01*
X3854286Y-19110143D01*
X3816190Y-19110143D01*
X3797143Y-19119667D01*
X3882857Y-19233952D02*
X3863809Y-19243476D01*
X3816190Y-19243476D01*
X3797143Y-19233952D01*
X3787619Y-19214905D01*
X3787619Y-19195857D01*
X3797143Y-19176810D01*
X3816190Y-19167286D01*
X3863809Y-19167286D01*
X3882857Y-19157762D01*
X3978095Y-19110143D02*
X3978095Y-19310143D01*
X3978095Y-19119667D02*
X3997143Y-19110143D01*
X4035238Y-19110143D01*
X4054286Y-19119667D01*
X4063809Y-19129190D01*
X4073333Y-19148238D01*
X4073333Y-19205381D01*
X4063809Y-19224429D01*
X4054286Y-19233952D01*
X4035238Y-19243476D01*
X3997143Y-19243476D01*
X3978095Y-19233952D01*
X4159048Y-19224429D02*
X4168571Y-19233952D01*
X4159048Y-19243476D01*
X4149524Y-19233952D01*
X4159048Y-19224429D01*
X4159048Y-19243476D01*
X4159048Y-19119667D02*
X4168571Y-19129190D01*
X4159048Y-19138714D01*
X4149524Y-19129190D01*
X4159048Y-19119667D01*
X4159048Y-19138714D01*
M02*
