%TF.GenerationSoftware,KiCad,Pcbnew,(6.0.7)*%
%TF.CreationDate,2022-08-10T19:12:11+02:00*%
%TF.ProjectId,MAKE_PCB,4d414b45-5f50-4434-922e-6b696361645f,rev?*%
%TF.SameCoordinates,Original*%
%TF.FileFunction,Soldermask,Bot*%
%TF.FilePolarity,Negative*%
%FSLAX46Y46*%
G04 Gerber Fmt 4.6, Leading zero omitted, Abs format (unit mm)*
G04 Created by KiCad (PCBNEW (6.0.7)) date 2022-08-10 19:12:11*
%MOMM*%
%LPD*%
G01*
G04 APERTURE LIST*
%ADD10C,1.000000*%
%ADD11C,2.100000*%
%ADD12R,2.100000X2.100000*%
%ADD13R,1.524000X1.524000*%
%ADD14C,1.524000*%
%ADD15C,1.600000*%
%ADD16R,1.600000X1.600000*%
%ADD17O,1.600000X1.600000*%
%ADD18C,1.500000*%
G04 APERTURE END LIST*
D10*
%TO.C,5V*%
X30480000Y-167640000D03*
%TD*%
%TO.C,Fancy*%
X74930000Y-148590000D03*
%TD*%
%TO.C,GND*%
X81280000Y-148590000D03*
%TD*%
%TO.C,B*%
X72390000Y-148590000D03*
%TD*%
%TO.C,R*%
X67310000Y-148590000D03*
%TD*%
%TO.C,DI*%
X36830000Y-148590000D03*
%TD*%
%TO.C,CI*%
X33020000Y-148590000D03*
%TD*%
%TO.C,G*%
X69850000Y-148590000D03*
%TD*%
%TO.C,6V*%
X30480000Y-163830000D03*
%TD*%
D11*
%TO.C,CR2450_2*%
X49890914Y-130810000D03*
D12*
X29890914Y-130810000D03*
%TD*%
D13*
%TO.C,L7805CV1*%
X76200000Y-181610000D03*
D14*
X76200000Y-179070000D03*
X76200000Y-176530000D03*
%TD*%
D15*
%TO.C,C3*%
X46990000Y-177840000D03*
X46990000Y-182840000D03*
%TD*%
%TO.C,C4*%
X41910000Y-177840000D03*
X41910000Y-182840000D03*
%TD*%
D14*
%TO.C,Button1*%
X86995000Y-151130000D03*
X92075000Y-151130000D03*
%TD*%
%TO.C,ProgramingPins*%
X30480000Y-182880000D03*
X30480000Y-180340000D03*
X30480000Y-177800000D03*
X30480000Y-175260000D03*
X30480000Y-172720000D03*
%TD*%
D16*
%TO.C,C2*%
X68580000Y-176530000D03*
D15*
X68580000Y-179030000D03*
%TD*%
D14*
%TO.C,POWER*%
X30480000Y-154305000D03*
X30480000Y-156845000D03*
X30480000Y-159385000D03*
%TD*%
D15*
%TO.C,R2*%
X77470000Y-161290000D03*
D17*
X67310000Y-161290000D03*
%TD*%
D16*
%TO.C,ATmega-XXXX-X*%
X54620000Y-149870000D03*
D17*
X54620000Y-152410000D03*
X54620000Y-154950000D03*
X54620000Y-157490000D03*
X54620000Y-160030000D03*
X54620000Y-162570000D03*
X54620000Y-165110000D03*
X54620000Y-167650000D03*
X54620000Y-170190000D03*
X54620000Y-172730000D03*
X54620000Y-175270000D03*
X54620000Y-177810000D03*
X54620000Y-180350000D03*
X54620000Y-182890000D03*
X62240000Y-182890000D03*
X62240000Y-180350000D03*
X62240000Y-177810000D03*
X62240000Y-175270000D03*
X62240000Y-172730000D03*
X62240000Y-170190000D03*
X62240000Y-167650000D03*
X62240000Y-165110000D03*
X62240000Y-162570000D03*
X62240000Y-160030000D03*
X62240000Y-157490000D03*
X62240000Y-154950000D03*
X62240000Y-152410000D03*
X62240000Y-149870000D03*
%TD*%
D14*
%TO.C,Button4*%
X86995000Y-181610000D03*
X92075000Y-181610000D03*
%TD*%
D15*
%TO.C,R5*%
X50800000Y-149860000D03*
D17*
X40640000Y-149860000D03*
%TD*%
D15*
%TO.C,R1*%
X77470000Y-156210000D03*
D17*
X67310000Y-156210000D03*
%TD*%
D14*
%TO.C,Button2*%
X86995000Y-160020000D03*
X92075000Y-160020000D03*
%TD*%
D18*
%TO.C,Crystal*%
X42000000Y-172720000D03*
X46880000Y-172720000D03*
%TD*%
D14*
%TO.C,Button3*%
X86995000Y-168910000D03*
X92075000Y-168910000D03*
%TD*%
D15*
%TO.C,R4*%
X77470000Y-171450000D03*
D17*
X67310000Y-171450000D03*
%TD*%
D16*
%TO.C,C1*%
X68580000Y-185420000D03*
D15*
X68580000Y-182920000D03*
%TD*%
%TO.C,R3*%
X77470000Y-166370000D03*
D17*
X67310000Y-166370000D03*
%TD*%
D12*
%TO.C,CR2450_1*%
X64180914Y-130810000D03*
D11*
X84180914Y-130810000D03*
%TD*%
M02*
