%TF.GenerationSoftware,KiCad,Pcbnew,(6.0.7)*%
%TF.CreationDate,2022-08-10T19:12:16+02:00*%
%TF.ProjectId,MAKE_PCB,4d414b45-5f50-4434-922e-6b696361645f,rev?*%
%TF.SameCoordinates,Original*%
%TF.FileFunction,Drillmap*%
%TF.FilePolarity,Positive*%
%FSLAX45Y45*%
G04 Gerber Fmt 4.5, Leading zero omitted, Abs format (unit mm)*
G04 Created by KiCad (PCBNEW (6.0.7)) date 2022-08-10 19:12:16*
%MOMM*%
%LPD*%
G01*
G04 APERTURE LIST*
%ADD10C,0.200000*%
%ADD11C,0.040000*%
%ADD12C,0.050000*%
%ADD13C,0.076200*%
%ADD14C,0.080000*%
%ADD15C,0.130000*%
G04 APERTURE END LIST*
D10*
X2540000Y-18923000D02*
X9398000Y-18923000D01*
X9398000Y-18923000D02*
X9398000Y-9398000D01*
X9398000Y-9398000D02*
X2540000Y-9398000D01*
X2540000Y-9398000D02*
X2540000Y-18923000D01*
D11*
X4806000Y-11054400D02*
X4846000Y-11094400D01*
X4846000Y-11054400D02*
X4806000Y-11094400D01*
X5009200Y-12578400D02*
X5049200Y-12618400D01*
X5049200Y-12578400D02*
X5009200Y-12618400D01*
X5060000Y-11765600D02*
X5100000Y-11805600D01*
X5100000Y-11765600D02*
X5060000Y-11805600D01*
X5161600Y-11308400D02*
X5201600Y-11348400D01*
X5201600Y-11308400D02*
X5161600Y-11348400D01*
X5669600Y-12629200D02*
X5709600Y-12669200D01*
X5709600Y-12629200D02*
X5669600Y-12669200D01*
X5822000Y-14458000D02*
X5862000Y-14498000D01*
X5862000Y-14458000D02*
X5822000Y-14498000D01*
X5949000Y-14458000D02*
X5989000Y-14498000D01*
X5989000Y-14458000D02*
X5949000Y-14498000D01*
X6533200Y-11054400D02*
X6573200Y-11094400D01*
X6573200Y-11054400D02*
X6533200Y-11094400D01*
X6736400Y-11765600D02*
X6776400Y-11805600D01*
X6776400Y-11765600D02*
X6736400Y-11805600D01*
X6838000Y-11257600D02*
X6878000Y-11297600D01*
X6878000Y-11257600D02*
X6838000Y-11297600D01*
X6838000Y-12121200D02*
X6878000Y-12161200D01*
X6878000Y-12121200D02*
X6838000Y-12161200D01*
D12*
X3073000Y-16383000D02*
G75*
G03*
X3073000Y-16383000I-25000J0D01*
G01*
X3073000Y-16764000D02*
G75*
G03*
X3073000Y-16764000I-25000J0D01*
G01*
X3327000Y-14859000D02*
G75*
G03*
X3327000Y-14859000I-25000J0D01*
G01*
X3708000Y-14859000D02*
G75*
G03*
X3708000Y-14859000I-25000J0D01*
G01*
X6756000Y-14859000D02*
G75*
G03*
X6756000Y-14859000I-25000J0D01*
G01*
X7010000Y-14859000D02*
G75*
G03*
X7010000Y-14859000I-25000J0D01*
G01*
X7264000Y-14859000D02*
G75*
G03*
X7264000Y-14859000I-25000J0D01*
G01*
X7518000Y-14859000D02*
G75*
G03*
X7518000Y-14859000I-25000J0D01*
G01*
X8153000Y-14859000D02*
G75*
G03*
X8153000Y-14859000I-25000J0D01*
G01*
D13*
X3048000Y-15392400D02*
X3048000Y-15468600D01*
X3009900Y-15430500D02*
X3086100Y-15430500D01*
X3048000Y-15646400D02*
X3048000Y-15722600D01*
X3009900Y-15684500D02*
X3086100Y-15684500D01*
X3048000Y-15900400D02*
X3048000Y-15976600D01*
X3009900Y-15938500D02*
X3086100Y-15938500D01*
X3048000Y-17233900D02*
X3048000Y-17310100D01*
X3009900Y-17272000D02*
X3086100Y-17272000D01*
X3048000Y-17487900D02*
X3048000Y-17564100D01*
X3009900Y-17526000D02*
X3086100Y-17526000D01*
X3048000Y-17741900D02*
X3048000Y-17818100D01*
X3009900Y-17780000D02*
X3086100Y-17780000D01*
X3048000Y-17995900D02*
X3048000Y-18072100D01*
X3009900Y-18034000D02*
X3086100Y-18034000D01*
X3048000Y-18249900D02*
X3048000Y-18326100D01*
X3009900Y-18288000D02*
X3086100Y-18288000D01*
X7620000Y-17614900D02*
X7620000Y-17691100D01*
X7581900Y-17653000D02*
X7658100Y-17653000D01*
X7620000Y-17868900D02*
X7620000Y-17945100D01*
X7581900Y-17907000D02*
X7658100Y-17907000D01*
X7620000Y-18122900D02*
X7620000Y-18199100D01*
X7581900Y-18161000D02*
X7658100Y-18161000D01*
X8699500Y-15074900D02*
X8699500Y-15151100D01*
X8661400Y-15113000D02*
X8737600Y-15113000D01*
X8699500Y-15963900D02*
X8699500Y-16040100D01*
X8661400Y-16002000D02*
X8737600Y-16002000D01*
X8699500Y-16852900D02*
X8699500Y-16929100D01*
X8661400Y-16891000D02*
X8737600Y-16891000D01*
X8699500Y-18122900D02*
X8699500Y-18199100D01*
X8661400Y-18161000D02*
X8737600Y-18161000D01*
X9207500Y-15074900D02*
X9207500Y-15151100D01*
X9169400Y-15113000D02*
X9245600Y-15113000D01*
X9207500Y-15963900D02*
X9207500Y-16040100D01*
X9169400Y-16002000D02*
X9245600Y-16002000D01*
X9207500Y-16852900D02*
X9207500Y-16929100D01*
X9169400Y-16891000D02*
X9245600Y-16891000D01*
X9207500Y-18122900D02*
X9207500Y-18199100D01*
X9169400Y-18161000D02*
X9245600Y-18161000D01*
D14*
X4092284Y-15014284D02*
X4092284Y-14957715D01*
X4035715Y-14957715D01*
X4035715Y-15014284D01*
X4092284Y-15014284D01*
X4219285Y-17812285D02*
X4219285Y-17755716D01*
X4162715Y-17755716D01*
X4162715Y-17812285D01*
X4219285Y-17812285D01*
X4219285Y-18312285D02*
X4219285Y-18255716D01*
X4162715Y-18255716D01*
X4162715Y-18312285D01*
X4219285Y-18312285D01*
X4228285Y-17300285D02*
X4228285Y-17243716D01*
X4171715Y-17243716D01*
X4171715Y-17300285D01*
X4228285Y-17300285D01*
X4716285Y-17300285D02*
X4716285Y-17243716D01*
X4659716Y-17243716D01*
X4659716Y-17300285D01*
X4716285Y-17300285D01*
X4727285Y-17812285D02*
X4727285Y-17755716D01*
X4670716Y-17755716D01*
X4670716Y-17812285D01*
X4727285Y-17812285D01*
X4727285Y-18312285D02*
X4727285Y-18255716D01*
X4670716Y-18255716D01*
X4670716Y-18312285D01*
X4727285Y-18312285D01*
X5108285Y-15014284D02*
X5108285Y-14957715D01*
X5051716Y-14957715D01*
X5051716Y-15014284D01*
X5108285Y-15014284D01*
X5490285Y-15015284D02*
X5490285Y-14958715D01*
X5433716Y-14958715D01*
X5433716Y-15015284D01*
X5490285Y-15015284D01*
X5490285Y-15269284D02*
X5490285Y-15212715D01*
X5433716Y-15212715D01*
X5433716Y-15269284D01*
X5490285Y-15269284D01*
X5490285Y-15523284D02*
X5490285Y-15466715D01*
X5433716Y-15466715D01*
X5433716Y-15523284D01*
X5490285Y-15523284D01*
X5490285Y-15777284D02*
X5490285Y-15720715D01*
X5433716Y-15720715D01*
X5433716Y-15777284D01*
X5490285Y-15777284D01*
X5490285Y-16031284D02*
X5490285Y-15974715D01*
X5433716Y-15974715D01*
X5433716Y-16031284D01*
X5490285Y-16031284D01*
X5490285Y-16285284D02*
X5490285Y-16228715D01*
X5433716Y-16228715D01*
X5433716Y-16285284D01*
X5490285Y-16285284D01*
X5490285Y-16539284D02*
X5490285Y-16482715D01*
X5433716Y-16482715D01*
X5433716Y-16539284D01*
X5490285Y-16539284D01*
X5490285Y-16793285D02*
X5490285Y-16736715D01*
X5433716Y-16736715D01*
X5433716Y-16793285D01*
X5490285Y-16793285D01*
X5490285Y-17047285D02*
X5490285Y-16990716D01*
X5433716Y-16990716D01*
X5433716Y-17047285D01*
X5490285Y-17047285D01*
X5490285Y-17301285D02*
X5490285Y-17244716D01*
X5433716Y-17244716D01*
X5433716Y-17301285D01*
X5490285Y-17301285D01*
X5490285Y-17555285D02*
X5490285Y-17498716D01*
X5433716Y-17498716D01*
X5433716Y-17555285D01*
X5490285Y-17555285D01*
X5490285Y-17809285D02*
X5490285Y-17752716D01*
X5433716Y-17752716D01*
X5433716Y-17809285D01*
X5490285Y-17809285D01*
X5490285Y-18063285D02*
X5490285Y-18006716D01*
X5433716Y-18006716D01*
X5433716Y-18063285D01*
X5490285Y-18063285D01*
X5490285Y-18317285D02*
X5490285Y-18260716D01*
X5433716Y-18260716D01*
X5433716Y-18317285D01*
X5490285Y-18317285D01*
X6252284Y-15015284D02*
X6252284Y-14958715D01*
X6195715Y-14958715D01*
X6195715Y-15015284D01*
X6252284Y-15015284D01*
X6252284Y-15269284D02*
X6252284Y-15212715D01*
X6195715Y-15212715D01*
X6195715Y-15269284D01*
X6252284Y-15269284D01*
X6252284Y-15523284D02*
X6252284Y-15466715D01*
X6195715Y-15466715D01*
X6195715Y-15523284D01*
X6252284Y-15523284D01*
X6252284Y-15777284D02*
X6252284Y-15720715D01*
X6195715Y-15720715D01*
X6195715Y-15777284D01*
X6252284Y-15777284D01*
X6252284Y-16031284D02*
X6252284Y-15974715D01*
X6195715Y-15974715D01*
X6195715Y-16031284D01*
X6252284Y-16031284D01*
X6252284Y-16285284D02*
X6252284Y-16228715D01*
X6195715Y-16228715D01*
X6195715Y-16285284D01*
X6252284Y-16285284D01*
X6252284Y-16539284D02*
X6252284Y-16482715D01*
X6195715Y-16482715D01*
X6195715Y-16539284D01*
X6252284Y-16539284D01*
X6252284Y-16793285D02*
X6252284Y-16736715D01*
X6195715Y-16736715D01*
X6195715Y-16793285D01*
X6252284Y-16793285D01*
X6252284Y-17047285D02*
X6252284Y-16990716D01*
X6195715Y-16990716D01*
X6195715Y-17047285D01*
X6252284Y-17047285D01*
X6252284Y-17301285D02*
X6252284Y-17244716D01*
X6195715Y-17244716D01*
X6195715Y-17301285D01*
X6252284Y-17301285D01*
X6252284Y-17555285D02*
X6252284Y-17498716D01*
X6195715Y-17498716D01*
X6195715Y-17555285D01*
X6252284Y-17555285D01*
X6252284Y-17809285D02*
X6252284Y-17752716D01*
X6195715Y-17752716D01*
X6195715Y-17809285D01*
X6252284Y-17809285D01*
X6252284Y-18063285D02*
X6252284Y-18006716D01*
X6195715Y-18006716D01*
X6195715Y-18063285D01*
X6252284Y-18063285D01*
X6252284Y-18317285D02*
X6252284Y-18260716D01*
X6195715Y-18260716D01*
X6195715Y-18317285D01*
X6252284Y-18317285D01*
X6759284Y-15649284D02*
X6759284Y-15592715D01*
X6702715Y-15592715D01*
X6702715Y-15649284D01*
X6759284Y-15649284D01*
X6759284Y-16157284D02*
X6759284Y-16100715D01*
X6702715Y-16100715D01*
X6702715Y-16157284D01*
X6759284Y-16157284D01*
X6759284Y-16665284D02*
X6759284Y-16608715D01*
X6702715Y-16608715D01*
X6702715Y-16665284D01*
X6759284Y-16665284D01*
X6759284Y-17173285D02*
X6759284Y-17116716D01*
X6702715Y-17116716D01*
X6702715Y-17173285D01*
X6759284Y-17173285D01*
X6886284Y-17681285D02*
X6886284Y-17624716D01*
X6829715Y-17624716D01*
X6829715Y-17681285D01*
X6886284Y-17681285D01*
X6886284Y-17931285D02*
X6886284Y-17874716D01*
X6829715Y-17874716D01*
X6829715Y-17931285D01*
X6886284Y-17931285D01*
X6886284Y-18320285D02*
X6886284Y-18263716D01*
X6829715Y-18263716D01*
X6829715Y-18320285D01*
X6886284Y-18320285D01*
X6886284Y-18570285D02*
X6886284Y-18513716D01*
X6829715Y-18513716D01*
X6829715Y-18570285D01*
X6886284Y-18570285D01*
X7775284Y-15649284D02*
X7775284Y-15592715D01*
X7718715Y-15592715D01*
X7718715Y-15649284D01*
X7775284Y-15649284D01*
X7775284Y-16157284D02*
X7775284Y-16100715D01*
X7718715Y-16100715D01*
X7718715Y-16157284D01*
X7775284Y-16157284D01*
X7775284Y-16665284D02*
X7775284Y-16608715D01*
X7718715Y-16608715D01*
X7718715Y-16665284D01*
X7775284Y-16665284D01*
X7775284Y-17173285D02*
X7775284Y-17116716D01*
X7718715Y-17116716D01*
X7718715Y-17173285D01*
X7775284Y-17173285D01*
D15*
X2989091Y-13146000D02*
X3054091Y-13081000D01*
X2989091Y-13016000D01*
X2924091Y-13081000D01*
X2989091Y-13146000D01*
X4989091Y-13146000D02*
X5054091Y-13081000D01*
X4989091Y-13016000D01*
X4924091Y-13081000D01*
X4989091Y-13146000D01*
X6418091Y-13146000D02*
X6483091Y-13081000D01*
X6418091Y-13016000D01*
X6353091Y-13081000D01*
X6418091Y-13146000D01*
X8418091Y-13146000D02*
X8483091Y-13081000D01*
X8418091Y-13016000D01*
X8353091Y-13081000D01*
X8418091Y-13146000D01*
D10*
X2787619Y-19243476D02*
X2787619Y-19043476D01*
X2835238Y-19043476D01*
X2863809Y-19053000D01*
X2882857Y-19072048D01*
X2892381Y-19091095D01*
X2901905Y-19129190D01*
X2901905Y-19157762D01*
X2892381Y-19195857D01*
X2882857Y-19214905D01*
X2863809Y-19233952D01*
X2835238Y-19243476D01*
X2787619Y-19243476D01*
X2987619Y-19243476D02*
X2987619Y-19110143D01*
X2987619Y-19148238D02*
X2997143Y-19129190D01*
X3006667Y-19119667D01*
X3025714Y-19110143D01*
X3044762Y-19110143D01*
X3111428Y-19243476D02*
X3111428Y-19110143D01*
X3111428Y-19043476D02*
X3101905Y-19053000D01*
X3111428Y-19062524D01*
X3120952Y-19053000D01*
X3111428Y-19043476D01*
X3111428Y-19062524D01*
X3235238Y-19243476D02*
X3216190Y-19233952D01*
X3206667Y-19214905D01*
X3206667Y-19043476D01*
X3340000Y-19243476D02*
X3320952Y-19233952D01*
X3311428Y-19214905D01*
X3311428Y-19043476D01*
X3568571Y-19243476D02*
X3568571Y-19043476D01*
X3635238Y-19186333D01*
X3701905Y-19043476D01*
X3701905Y-19243476D01*
X3882857Y-19243476D02*
X3882857Y-19138714D01*
X3873333Y-19119667D01*
X3854286Y-19110143D01*
X3816190Y-19110143D01*
X3797143Y-19119667D01*
X3882857Y-19233952D02*
X3863809Y-19243476D01*
X3816190Y-19243476D01*
X3797143Y-19233952D01*
X3787619Y-19214905D01*
X3787619Y-19195857D01*
X3797143Y-19176810D01*
X3816190Y-19167286D01*
X3863809Y-19167286D01*
X3882857Y-19157762D01*
X3978095Y-19110143D02*
X3978095Y-19310143D01*
X3978095Y-19119667D02*
X3997143Y-19110143D01*
X4035238Y-19110143D01*
X4054286Y-19119667D01*
X4063809Y-19129190D01*
X4073333Y-19148238D01*
X4073333Y-19205381D01*
X4063809Y-19224429D01*
X4054286Y-19233952D01*
X4035238Y-19243476D01*
X3997143Y-19243476D01*
X3978095Y-19233952D01*
X4159048Y-19224429D02*
X4168571Y-19233952D01*
X4159048Y-19243476D01*
X4149524Y-19233952D01*
X4159048Y-19224429D01*
X4159048Y-19243476D01*
X4159048Y-19119667D02*
X4168571Y-19129190D01*
X4159048Y-19138714D01*
X4149524Y-19129190D01*
X4159048Y-19119667D01*
X4159048Y-19138714D01*
D11*
X2490000Y-19553000D02*
X2530000Y-19593000D01*
X2530000Y-19553000D02*
X2490000Y-19593000D01*
D10*
X2825714Y-19463476D02*
X2844762Y-19463476D01*
X2863809Y-19473000D01*
X2873333Y-19482524D01*
X2882857Y-19501571D01*
X2892381Y-19539667D01*
X2892381Y-19587286D01*
X2882857Y-19625381D01*
X2873333Y-19644429D01*
X2863809Y-19653952D01*
X2844762Y-19663476D01*
X2825714Y-19663476D01*
X2806667Y-19653952D01*
X2797143Y-19644429D01*
X2787619Y-19625381D01*
X2778095Y-19587286D01*
X2778095Y-19539667D01*
X2787619Y-19501571D01*
X2797143Y-19482524D01*
X2806667Y-19473000D01*
X2825714Y-19463476D01*
X2978095Y-19644429D02*
X2987619Y-19653952D01*
X2978095Y-19663476D01*
X2968571Y-19653952D01*
X2978095Y-19644429D01*
X2978095Y-19663476D01*
X3159048Y-19530143D02*
X3159048Y-19663476D01*
X3111428Y-19453952D02*
X3063809Y-19596810D01*
X3187619Y-19596810D01*
X3301905Y-19463476D02*
X3320952Y-19463476D01*
X3340000Y-19473000D01*
X3349524Y-19482524D01*
X3359048Y-19501571D01*
X3368571Y-19539667D01*
X3368571Y-19587286D01*
X3359048Y-19625381D01*
X3349524Y-19644429D01*
X3340000Y-19653952D01*
X3320952Y-19663476D01*
X3301905Y-19663476D01*
X3282857Y-19653952D01*
X3273333Y-19644429D01*
X3263809Y-19625381D01*
X3254286Y-19587286D01*
X3254286Y-19539667D01*
X3263809Y-19501571D01*
X3273333Y-19482524D01*
X3282857Y-19473000D01*
X3301905Y-19463476D01*
X3492381Y-19463476D02*
X3511428Y-19463476D01*
X3530476Y-19473000D01*
X3540000Y-19482524D01*
X3549524Y-19501571D01*
X3559048Y-19539667D01*
X3559048Y-19587286D01*
X3549524Y-19625381D01*
X3540000Y-19644429D01*
X3530476Y-19653952D01*
X3511428Y-19663476D01*
X3492381Y-19663476D01*
X3473333Y-19653952D01*
X3463809Y-19644429D01*
X3454286Y-19625381D01*
X3444762Y-19587286D01*
X3444762Y-19539667D01*
X3454286Y-19501571D01*
X3463809Y-19482524D01*
X3473333Y-19473000D01*
X3492381Y-19463476D01*
X3644762Y-19663476D02*
X3644762Y-19530143D01*
X3644762Y-19549190D02*
X3654286Y-19539667D01*
X3673333Y-19530143D01*
X3701905Y-19530143D01*
X3720952Y-19539667D01*
X3730476Y-19558714D01*
X3730476Y-19663476D01*
X3730476Y-19558714D02*
X3740000Y-19539667D01*
X3759048Y-19530143D01*
X3787619Y-19530143D01*
X3806667Y-19539667D01*
X3816190Y-19558714D01*
X3816190Y-19663476D01*
X3911428Y-19663476D02*
X3911428Y-19530143D01*
X3911428Y-19549190D02*
X3920952Y-19539667D01*
X3940000Y-19530143D01*
X3968571Y-19530143D01*
X3987619Y-19539667D01*
X3997143Y-19558714D01*
X3997143Y-19663476D01*
X3997143Y-19558714D02*
X4006667Y-19539667D01*
X4025714Y-19530143D01*
X4054286Y-19530143D01*
X4073333Y-19539667D01*
X4082857Y-19558714D01*
X4082857Y-19663476D01*
X4473333Y-19453952D02*
X4301905Y-19711095D01*
X4730476Y-19463476D02*
X4749524Y-19463476D01*
X4768571Y-19473000D01*
X4778095Y-19482524D01*
X4787619Y-19501571D01*
X4797143Y-19539667D01*
X4797143Y-19587286D01*
X4787619Y-19625381D01*
X4778095Y-19644429D01*
X4768571Y-19653952D01*
X4749524Y-19663476D01*
X4730476Y-19663476D01*
X4711429Y-19653952D01*
X4701905Y-19644429D01*
X4692381Y-19625381D01*
X4682857Y-19587286D01*
X4682857Y-19539667D01*
X4692381Y-19501571D01*
X4701905Y-19482524D01*
X4711429Y-19473000D01*
X4730476Y-19463476D01*
X4882857Y-19644429D02*
X4892381Y-19653952D01*
X4882857Y-19663476D01*
X4873333Y-19653952D01*
X4882857Y-19644429D01*
X4882857Y-19663476D01*
X5016190Y-19463476D02*
X5035238Y-19463476D01*
X5054286Y-19473000D01*
X5063810Y-19482524D01*
X5073333Y-19501571D01*
X5082857Y-19539667D01*
X5082857Y-19587286D01*
X5073333Y-19625381D01*
X5063810Y-19644429D01*
X5054286Y-19653952D01*
X5035238Y-19663476D01*
X5016190Y-19663476D01*
X4997143Y-19653952D01*
X4987619Y-19644429D01*
X4978095Y-19625381D01*
X4968571Y-19587286D01*
X4968571Y-19539667D01*
X4978095Y-19501571D01*
X4987619Y-19482524D01*
X4997143Y-19473000D01*
X5016190Y-19463476D01*
X5273333Y-19663476D02*
X5159048Y-19663476D01*
X5216190Y-19663476D02*
X5216190Y-19463476D01*
X5197143Y-19492048D01*
X5178095Y-19511095D01*
X5159048Y-19520619D01*
X5454286Y-19463476D02*
X5359048Y-19463476D01*
X5349524Y-19558714D01*
X5359048Y-19549190D01*
X5378095Y-19539667D01*
X5425714Y-19539667D01*
X5444762Y-19549190D01*
X5454286Y-19558714D01*
X5463810Y-19577762D01*
X5463810Y-19625381D01*
X5454286Y-19644429D01*
X5444762Y-19653952D01*
X5425714Y-19663476D01*
X5378095Y-19663476D01*
X5359048Y-19653952D01*
X5349524Y-19644429D01*
X5530476Y-19463476D02*
X5663809Y-19463476D01*
X5578095Y-19663476D01*
X5730476Y-19463476D02*
X5730476Y-19501571D01*
X5806667Y-19463476D02*
X5806667Y-19501571D01*
X6101905Y-19739667D02*
X6092381Y-19730143D01*
X6073333Y-19701571D01*
X6063809Y-19682524D01*
X6054286Y-19653952D01*
X6044762Y-19606333D01*
X6044762Y-19568238D01*
X6054286Y-19520619D01*
X6063809Y-19492048D01*
X6073333Y-19473000D01*
X6092381Y-19444429D01*
X6101905Y-19434905D01*
X6282857Y-19663476D02*
X6168571Y-19663476D01*
X6225714Y-19663476D02*
X6225714Y-19463476D01*
X6206667Y-19492048D01*
X6187619Y-19511095D01*
X6168571Y-19520619D01*
X6473333Y-19663476D02*
X6359048Y-19663476D01*
X6416190Y-19663476D02*
X6416190Y-19463476D01*
X6397143Y-19492048D01*
X6378095Y-19511095D01*
X6359048Y-19520619D01*
X6711428Y-19663476D02*
X6711428Y-19463476D01*
X6797143Y-19663476D02*
X6797143Y-19558714D01*
X6787619Y-19539667D01*
X6768571Y-19530143D01*
X6740000Y-19530143D01*
X6720952Y-19539667D01*
X6711428Y-19549190D01*
X6920952Y-19663476D02*
X6901905Y-19653952D01*
X6892381Y-19644429D01*
X6882857Y-19625381D01*
X6882857Y-19568238D01*
X6892381Y-19549190D01*
X6901905Y-19539667D01*
X6920952Y-19530143D01*
X6949524Y-19530143D01*
X6968571Y-19539667D01*
X6978095Y-19549190D01*
X6987619Y-19568238D01*
X6987619Y-19625381D01*
X6978095Y-19644429D01*
X6968571Y-19653952D01*
X6949524Y-19663476D01*
X6920952Y-19663476D01*
X7101905Y-19663476D02*
X7082857Y-19653952D01*
X7073333Y-19634905D01*
X7073333Y-19463476D01*
X7254286Y-19653952D02*
X7235238Y-19663476D01*
X7197143Y-19663476D01*
X7178095Y-19653952D01*
X7168571Y-19634905D01*
X7168571Y-19558714D01*
X7178095Y-19539667D01*
X7197143Y-19530143D01*
X7235238Y-19530143D01*
X7254286Y-19539667D01*
X7263809Y-19558714D01*
X7263809Y-19577762D01*
X7168571Y-19596810D01*
X7340000Y-19653952D02*
X7359048Y-19663476D01*
X7397143Y-19663476D01*
X7416190Y-19653952D01*
X7425714Y-19634905D01*
X7425714Y-19625381D01*
X7416190Y-19606333D01*
X7397143Y-19596810D01*
X7368571Y-19596810D01*
X7349524Y-19587286D01*
X7340000Y-19568238D01*
X7340000Y-19558714D01*
X7349524Y-19539667D01*
X7368571Y-19530143D01*
X7397143Y-19530143D01*
X7416190Y-19539667D01*
X7492381Y-19739667D02*
X7501905Y-19730143D01*
X7520952Y-19701571D01*
X7530476Y-19682524D01*
X7540000Y-19653952D01*
X7549524Y-19606333D01*
X7549524Y-19568238D01*
X7540000Y-19520619D01*
X7530476Y-19492048D01*
X7520952Y-19473000D01*
X7501905Y-19444429D01*
X7492381Y-19434905D01*
D12*
X2530000Y-19837000D02*
G75*
G03*
X2530000Y-19837000I-25000J0D01*
G01*
D10*
X2825714Y-19727476D02*
X2844762Y-19727476D01*
X2863809Y-19737000D01*
X2873333Y-19746524D01*
X2882857Y-19765571D01*
X2892381Y-19803667D01*
X2892381Y-19851286D01*
X2882857Y-19889381D01*
X2873333Y-19908429D01*
X2863809Y-19917952D01*
X2844762Y-19927476D01*
X2825714Y-19927476D01*
X2806667Y-19917952D01*
X2797143Y-19908429D01*
X2787619Y-19889381D01*
X2778095Y-19851286D01*
X2778095Y-19803667D01*
X2787619Y-19765571D01*
X2797143Y-19746524D01*
X2806667Y-19737000D01*
X2825714Y-19727476D01*
X2978095Y-19908429D02*
X2987619Y-19917952D01*
X2978095Y-19927476D01*
X2968571Y-19917952D01*
X2978095Y-19908429D01*
X2978095Y-19927476D01*
X3168571Y-19727476D02*
X3073333Y-19727476D01*
X3063809Y-19822714D01*
X3073333Y-19813190D01*
X3092381Y-19803667D01*
X3140000Y-19803667D01*
X3159048Y-19813190D01*
X3168571Y-19822714D01*
X3178095Y-19841762D01*
X3178095Y-19889381D01*
X3168571Y-19908429D01*
X3159048Y-19917952D01*
X3140000Y-19927476D01*
X3092381Y-19927476D01*
X3073333Y-19917952D01*
X3063809Y-19908429D01*
X3301905Y-19727476D02*
X3320952Y-19727476D01*
X3340000Y-19737000D01*
X3349524Y-19746524D01*
X3359048Y-19765571D01*
X3368571Y-19803667D01*
X3368571Y-19851286D01*
X3359048Y-19889381D01*
X3349524Y-19908429D01*
X3340000Y-19917952D01*
X3320952Y-19927476D01*
X3301905Y-19927476D01*
X3282857Y-19917952D01*
X3273333Y-19908429D01*
X3263809Y-19889381D01*
X3254286Y-19851286D01*
X3254286Y-19803667D01*
X3263809Y-19765571D01*
X3273333Y-19746524D01*
X3282857Y-19737000D01*
X3301905Y-19727476D01*
X3492381Y-19727476D02*
X3511428Y-19727476D01*
X3530476Y-19737000D01*
X3540000Y-19746524D01*
X3549524Y-19765571D01*
X3559048Y-19803667D01*
X3559048Y-19851286D01*
X3549524Y-19889381D01*
X3540000Y-19908429D01*
X3530476Y-19917952D01*
X3511428Y-19927476D01*
X3492381Y-19927476D01*
X3473333Y-19917952D01*
X3463809Y-19908429D01*
X3454286Y-19889381D01*
X3444762Y-19851286D01*
X3444762Y-19803667D01*
X3454286Y-19765571D01*
X3463809Y-19746524D01*
X3473333Y-19737000D01*
X3492381Y-19727476D01*
X3644762Y-19927476D02*
X3644762Y-19794143D01*
X3644762Y-19813190D02*
X3654286Y-19803667D01*
X3673333Y-19794143D01*
X3701905Y-19794143D01*
X3720952Y-19803667D01*
X3730476Y-19822714D01*
X3730476Y-19927476D01*
X3730476Y-19822714D02*
X3740000Y-19803667D01*
X3759048Y-19794143D01*
X3787619Y-19794143D01*
X3806667Y-19803667D01*
X3816190Y-19822714D01*
X3816190Y-19927476D01*
X3911428Y-19927476D02*
X3911428Y-19794143D01*
X3911428Y-19813190D02*
X3920952Y-19803667D01*
X3940000Y-19794143D01*
X3968571Y-19794143D01*
X3987619Y-19803667D01*
X3997143Y-19822714D01*
X3997143Y-19927476D01*
X3997143Y-19822714D02*
X4006667Y-19803667D01*
X4025714Y-19794143D01*
X4054286Y-19794143D01*
X4073333Y-19803667D01*
X4082857Y-19822714D01*
X4082857Y-19927476D01*
X4473333Y-19717952D02*
X4301905Y-19975095D01*
X4730476Y-19727476D02*
X4749524Y-19727476D01*
X4768571Y-19737000D01*
X4778095Y-19746524D01*
X4787619Y-19765571D01*
X4797143Y-19803667D01*
X4797143Y-19851286D01*
X4787619Y-19889381D01*
X4778095Y-19908429D01*
X4768571Y-19917952D01*
X4749524Y-19927476D01*
X4730476Y-19927476D01*
X4711429Y-19917952D01*
X4701905Y-19908429D01*
X4692381Y-19889381D01*
X4682857Y-19851286D01*
X4682857Y-19803667D01*
X4692381Y-19765571D01*
X4701905Y-19746524D01*
X4711429Y-19737000D01*
X4730476Y-19727476D01*
X4882857Y-19908429D02*
X4892381Y-19917952D01*
X4882857Y-19927476D01*
X4873333Y-19917952D01*
X4882857Y-19908429D01*
X4882857Y-19927476D01*
X5016190Y-19727476D02*
X5035238Y-19727476D01*
X5054286Y-19737000D01*
X5063810Y-19746524D01*
X5073333Y-19765571D01*
X5082857Y-19803667D01*
X5082857Y-19851286D01*
X5073333Y-19889381D01*
X5063810Y-19908429D01*
X5054286Y-19917952D01*
X5035238Y-19927476D01*
X5016190Y-19927476D01*
X4997143Y-19917952D01*
X4987619Y-19908429D01*
X4978095Y-19889381D01*
X4968571Y-19851286D01*
X4968571Y-19803667D01*
X4978095Y-19765571D01*
X4987619Y-19746524D01*
X4997143Y-19737000D01*
X5016190Y-19727476D01*
X5273333Y-19927476D02*
X5159048Y-19927476D01*
X5216190Y-19927476D02*
X5216190Y-19727476D01*
X5197143Y-19756048D01*
X5178095Y-19775095D01*
X5159048Y-19784619D01*
X5368571Y-19927476D02*
X5406667Y-19927476D01*
X5425714Y-19917952D01*
X5435238Y-19908429D01*
X5454286Y-19879857D01*
X5463810Y-19841762D01*
X5463810Y-19765571D01*
X5454286Y-19746524D01*
X5444762Y-19737000D01*
X5425714Y-19727476D01*
X5387619Y-19727476D01*
X5368571Y-19737000D01*
X5359048Y-19746524D01*
X5349524Y-19765571D01*
X5349524Y-19813190D01*
X5359048Y-19832238D01*
X5368571Y-19841762D01*
X5387619Y-19851286D01*
X5425714Y-19851286D01*
X5444762Y-19841762D01*
X5454286Y-19832238D01*
X5463810Y-19813190D01*
X5530476Y-19727476D02*
X5663809Y-19727476D01*
X5578095Y-19927476D01*
X5730476Y-19727476D02*
X5730476Y-19765571D01*
X5806667Y-19727476D02*
X5806667Y-19765571D01*
X6101905Y-20003667D02*
X6092381Y-19994143D01*
X6073333Y-19965571D01*
X6063809Y-19946524D01*
X6054286Y-19917952D01*
X6044762Y-19870333D01*
X6044762Y-19832238D01*
X6054286Y-19784619D01*
X6063809Y-19756048D01*
X6073333Y-19737000D01*
X6092381Y-19708429D01*
X6101905Y-19698905D01*
X6187619Y-19927476D02*
X6225714Y-19927476D01*
X6244762Y-19917952D01*
X6254286Y-19908429D01*
X6273333Y-19879857D01*
X6282857Y-19841762D01*
X6282857Y-19765571D01*
X6273333Y-19746524D01*
X6263809Y-19737000D01*
X6244762Y-19727476D01*
X6206667Y-19727476D01*
X6187619Y-19737000D01*
X6178095Y-19746524D01*
X6168571Y-19765571D01*
X6168571Y-19813190D01*
X6178095Y-19832238D01*
X6187619Y-19841762D01*
X6206667Y-19851286D01*
X6244762Y-19851286D01*
X6263809Y-19841762D01*
X6273333Y-19832238D01*
X6282857Y-19813190D01*
X6520952Y-19927476D02*
X6520952Y-19727476D01*
X6606667Y-19927476D02*
X6606667Y-19822714D01*
X6597143Y-19803667D01*
X6578095Y-19794143D01*
X6549524Y-19794143D01*
X6530476Y-19803667D01*
X6520952Y-19813190D01*
X6730476Y-19927476D02*
X6711428Y-19917952D01*
X6701905Y-19908429D01*
X6692381Y-19889381D01*
X6692381Y-19832238D01*
X6701905Y-19813190D01*
X6711428Y-19803667D01*
X6730476Y-19794143D01*
X6759048Y-19794143D01*
X6778095Y-19803667D01*
X6787619Y-19813190D01*
X6797143Y-19832238D01*
X6797143Y-19889381D01*
X6787619Y-19908429D01*
X6778095Y-19917952D01*
X6759048Y-19927476D01*
X6730476Y-19927476D01*
X6911428Y-19927476D02*
X6892381Y-19917952D01*
X6882857Y-19898905D01*
X6882857Y-19727476D01*
X7063809Y-19917952D02*
X7044762Y-19927476D01*
X7006667Y-19927476D01*
X6987619Y-19917952D01*
X6978095Y-19898905D01*
X6978095Y-19822714D01*
X6987619Y-19803667D01*
X7006667Y-19794143D01*
X7044762Y-19794143D01*
X7063809Y-19803667D01*
X7073333Y-19822714D01*
X7073333Y-19841762D01*
X6978095Y-19860810D01*
X7149524Y-19917952D02*
X7168571Y-19927476D01*
X7206667Y-19927476D01*
X7225714Y-19917952D01*
X7235238Y-19898905D01*
X7235238Y-19889381D01*
X7225714Y-19870333D01*
X7206667Y-19860810D01*
X7178095Y-19860810D01*
X7159048Y-19851286D01*
X7149524Y-19832238D01*
X7149524Y-19822714D01*
X7159048Y-19803667D01*
X7178095Y-19794143D01*
X7206667Y-19794143D01*
X7225714Y-19803667D01*
X7301905Y-20003667D02*
X7311428Y-19994143D01*
X7330476Y-19965571D01*
X7340000Y-19946524D01*
X7349524Y-19917952D01*
X7359048Y-19870333D01*
X7359048Y-19832238D01*
X7349524Y-19784619D01*
X7340000Y-19756048D01*
X7330476Y-19737000D01*
X7311428Y-19708429D01*
X7301905Y-19698905D01*
D13*
X2491900Y-20062900D02*
X2491900Y-20139100D01*
X2453800Y-20101000D02*
X2530000Y-20101000D01*
D10*
X2825714Y-19991476D02*
X2844762Y-19991476D01*
X2863809Y-20001000D01*
X2873333Y-20010524D01*
X2882857Y-20029571D01*
X2892381Y-20067667D01*
X2892381Y-20115286D01*
X2882857Y-20153381D01*
X2873333Y-20172429D01*
X2863809Y-20181952D01*
X2844762Y-20191476D01*
X2825714Y-20191476D01*
X2806667Y-20181952D01*
X2797143Y-20172429D01*
X2787619Y-20153381D01*
X2778095Y-20115286D01*
X2778095Y-20067667D01*
X2787619Y-20029571D01*
X2797143Y-20010524D01*
X2806667Y-20001000D01*
X2825714Y-19991476D01*
X2978095Y-20172429D02*
X2987619Y-20181952D01*
X2978095Y-20191476D01*
X2968571Y-20181952D01*
X2978095Y-20172429D01*
X2978095Y-20191476D01*
X3054286Y-19991476D02*
X3187619Y-19991476D01*
X3101905Y-20191476D01*
X3349524Y-19991476D02*
X3311428Y-19991476D01*
X3292381Y-20001000D01*
X3282857Y-20010524D01*
X3263809Y-20039095D01*
X3254286Y-20077190D01*
X3254286Y-20153381D01*
X3263809Y-20172429D01*
X3273333Y-20181952D01*
X3292381Y-20191476D01*
X3330476Y-20191476D01*
X3349524Y-20181952D01*
X3359048Y-20172429D01*
X3368571Y-20153381D01*
X3368571Y-20105762D01*
X3359048Y-20086714D01*
X3349524Y-20077190D01*
X3330476Y-20067667D01*
X3292381Y-20067667D01*
X3273333Y-20077190D01*
X3263809Y-20086714D01*
X3254286Y-20105762D01*
X3444762Y-20010524D02*
X3454286Y-20001000D01*
X3473333Y-19991476D01*
X3520952Y-19991476D01*
X3540000Y-20001000D01*
X3549524Y-20010524D01*
X3559048Y-20029571D01*
X3559048Y-20048619D01*
X3549524Y-20077190D01*
X3435238Y-20191476D01*
X3559048Y-20191476D01*
X3644762Y-20191476D02*
X3644762Y-20058143D01*
X3644762Y-20077190D02*
X3654286Y-20067667D01*
X3673333Y-20058143D01*
X3701905Y-20058143D01*
X3720952Y-20067667D01*
X3730476Y-20086714D01*
X3730476Y-20191476D01*
X3730476Y-20086714D02*
X3740000Y-20067667D01*
X3759048Y-20058143D01*
X3787619Y-20058143D01*
X3806667Y-20067667D01*
X3816190Y-20086714D01*
X3816190Y-20191476D01*
X3911428Y-20191476D02*
X3911428Y-20058143D01*
X3911428Y-20077190D02*
X3920952Y-20067667D01*
X3940000Y-20058143D01*
X3968571Y-20058143D01*
X3987619Y-20067667D01*
X3997143Y-20086714D01*
X3997143Y-20191476D01*
X3997143Y-20086714D02*
X4006667Y-20067667D01*
X4025714Y-20058143D01*
X4054286Y-20058143D01*
X4073333Y-20067667D01*
X4082857Y-20086714D01*
X4082857Y-20191476D01*
X4473333Y-19981952D02*
X4301905Y-20239095D01*
X4730476Y-19991476D02*
X4749524Y-19991476D01*
X4768571Y-20001000D01*
X4778095Y-20010524D01*
X4787619Y-20029571D01*
X4797143Y-20067667D01*
X4797143Y-20115286D01*
X4787619Y-20153381D01*
X4778095Y-20172429D01*
X4768571Y-20181952D01*
X4749524Y-20191476D01*
X4730476Y-20191476D01*
X4711429Y-20181952D01*
X4701905Y-20172429D01*
X4692381Y-20153381D01*
X4682857Y-20115286D01*
X4682857Y-20067667D01*
X4692381Y-20029571D01*
X4701905Y-20010524D01*
X4711429Y-20001000D01*
X4730476Y-19991476D01*
X4882857Y-20172429D02*
X4892381Y-20181952D01*
X4882857Y-20191476D01*
X4873333Y-20181952D01*
X4882857Y-20172429D01*
X4882857Y-20191476D01*
X5016190Y-19991476D02*
X5035238Y-19991476D01*
X5054286Y-20001000D01*
X5063810Y-20010524D01*
X5073333Y-20029571D01*
X5082857Y-20067667D01*
X5082857Y-20115286D01*
X5073333Y-20153381D01*
X5063810Y-20172429D01*
X5054286Y-20181952D01*
X5035238Y-20191476D01*
X5016190Y-20191476D01*
X4997143Y-20181952D01*
X4987619Y-20172429D01*
X4978095Y-20153381D01*
X4968571Y-20115286D01*
X4968571Y-20067667D01*
X4978095Y-20029571D01*
X4987619Y-20010524D01*
X4997143Y-20001000D01*
X5016190Y-19991476D01*
X5149524Y-19991476D02*
X5273333Y-19991476D01*
X5206667Y-20067667D01*
X5235238Y-20067667D01*
X5254286Y-20077190D01*
X5263810Y-20086714D01*
X5273333Y-20105762D01*
X5273333Y-20153381D01*
X5263810Y-20172429D01*
X5254286Y-20181952D01*
X5235238Y-20191476D01*
X5178095Y-20191476D01*
X5159048Y-20181952D01*
X5149524Y-20172429D01*
X5397143Y-19991476D02*
X5416190Y-19991476D01*
X5435238Y-20001000D01*
X5444762Y-20010524D01*
X5454286Y-20029571D01*
X5463810Y-20067667D01*
X5463810Y-20115286D01*
X5454286Y-20153381D01*
X5444762Y-20172429D01*
X5435238Y-20181952D01*
X5416190Y-20191476D01*
X5397143Y-20191476D01*
X5378095Y-20181952D01*
X5368571Y-20172429D01*
X5359048Y-20153381D01*
X5349524Y-20115286D01*
X5349524Y-20067667D01*
X5359048Y-20029571D01*
X5368571Y-20010524D01*
X5378095Y-20001000D01*
X5397143Y-19991476D01*
X5587619Y-19991476D02*
X5606667Y-19991476D01*
X5625714Y-20001000D01*
X5635238Y-20010524D01*
X5644762Y-20029571D01*
X5654286Y-20067667D01*
X5654286Y-20115286D01*
X5644762Y-20153381D01*
X5635238Y-20172429D01*
X5625714Y-20181952D01*
X5606667Y-20191476D01*
X5587619Y-20191476D01*
X5568571Y-20181952D01*
X5559048Y-20172429D01*
X5549524Y-20153381D01*
X5540000Y-20115286D01*
X5540000Y-20067667D01*
X5549524Y-20029571D01*
X5559048Y-20010524D01*
X5568571Y-20001000D01*
X5587619Y-19991476D01*
X5730476Y-19991476D02*
X5730476Y-20029571D01*
X5806667Y-19991476D02*
X5806667Y-20029571D01*
X6101905Y-20267667D02*
X6092381Y-20258143D01*
X6073333Y-20229571D01*
X6063809Y-20210524D01*
X6054286Y-20181952D01*
X6044762Y-20134333D01*
X6044762Y-20096238D01*
X6054286Y-20048619D01*
X6063809Y-20020048D01*
X6073333Y-20001000D01*
X6092381Y-19972429D01*
X6101905Y-19962905D01*
X6282857Y-20191476D02*
X6168571Y-20191476D01*
X6225714Y-20191476D02*
X6225714Y-19991476D01*
X6206667Y-20020048D01*
X6187619Y-20039095D01*
X6168571Y-20048619D01*
X6378095Y-20191476D02*
X6416190Y-20191476D01*
X6435238Y-20181952D01*
X6444762Y-20172429D01*
X6463809Y-20143857D01*
X6473333Y-20105762D01*
X6473333Y-20029571D01*
X6463809Y-20010524D01*
X6454286Y-20001000D01*
X6435238Y-19991476D01*
X6397143Y-19991476D01*
X6378095Y-20001000D01*
X6368571Y-20010524D01*
X6359048Y-20029571D01*
X6359048Y-20077190D01*
X6368571Y-20096238D01*
X6378095Y-20105762D01*
X6397143Y-20115286D01*
X6435238Y-20115286D01*
X6454286Y-20105762D01*
X6463809Y-20096238D01*
X6473333Y-20077190D01*
X6711428Y-20191476D02*
X6711428Y-19991476D01*
X6797143Y-20191476D02*
X6797143Y-20086714D01*
X6787619Y-20067667D01*
X6768571Y-20058143D01*
X6740000Y-20058143D01*
X6720952Y-20067667D01*
X6711428Y-20077190D01*
X6920952Y-20191476D02*
X6901905Y-20181952D01*
X6892381Y-20172429D01*
X6882857Y-20153381D01*
X6882857Y-20096238D01*
X6892381Y-20077190D01*
X6901905Y-20067667D01*
X6920952Y-20058143D01*
X6949524Y-20058143D01*
X6968571Y-20067667D01*
X6978095Y-20077190D01*
X6987619Y-20096238D01*
X6987619Y-20153381D01*
X6978095Y-20172429D01*
X6968571Y-20181952D01*
X6949524Y-20191476D01*
X6920952Y-20191476D01*
X7101905Y-20191476D02*
X7082857Y-20181952D01*
X7073333Y-20162905D01*
X7073333Y-19991476D01*
X7254286Y-20181952D02*
X7235238Y-20191476D01*
X7197143Y-20191476D01*
X7178095Y-20181952D01*
X7168571Y-20162905D01*
X7168571Y-20086714D01*
X7178095Y-20067667D01*
X7197143Y-20058143D01*
X7235238Y-20058143D01*
X7254286Y-20067667D01*
X7263809Y-20086714D01*
X7263809Y-20105762D01*
X7168571Y-20124810D01*
X7340000Y-20181952D02*
X7359048Y-20191476D01*
X7397143Y-20191476D01*
X7416190Y-20181952D01*
X7425714Y-20162905D01*
X7425714Y-20153381D01*
X7416190Y-20134333D01*
X7397143Y-20124810D01*
X7368571Y-20124810D01*
X7349524Y-20115286D01*
X7340000Y-20096238D01*
X7340000Y-20086714D01*
X7349524Y-20067667D01*
X7368571Y-20058143D01*
X7397143Y-20058143D01*
X7416190Y-20067667D01*
X7492381Y-20267667D02*
X7501905Y-20258143D01*
X7520952Y-20229571D01*
X7530476Y-20210524D01*
X7540000Y-20181952D01*
X7549524Y-20134333D01*
X7549524Y-20096238D01*
X7540000Y-20048619D01*
X7530476Y-20020048D01*
X7520952Y-20001000D01*
X7501905Y-19972429D01*
X7492381Y-19962905D01*
D14*
X2518285Y-20393285D02*
X2518285Y-20336716D01*
X2461716Y-20336716D01*
X2461716Y-20393285D01*
X2518285Y-20393285D01*
D10*
X2825714Y-20255476D02*
X2844762Y-20255476D01*
X2863809Y-20265000D01*
X2873333Y-20274524D01*
X2882857Y-20293571D01*
X2892381Y-20331667D01*
X2892381Y-20379286D01*
X2882857Y-20417381D01*
X2873333Y-20436429D01*
X2863809Y-20445952D01*
X2844762Y-20455476D01*
X2825714Y-20455476D01*
X2806667Y-20445952D01*
X2797143Y-20436429D01*
X2787619Y-20417381D01*
X2778095Y-20379286D01*
X2778095Y-20331667D01*
X2787619Y-20293571D01*
X2797143Y-20274524D01*
X2806667Y-20265000D01*
X2825714Y-20255476D01*
X2978095Y-20436429D02*
X2987619Y-20445952D01*
X2978095Y-20455476D01*
X2968571Y-20445952D01*
X2978095Y-20436429D01*
X2978095Y-20455476D01*
X3101905Y-20341190D02*
X3082857Y-20331667D01*
X3073333Y-20322143D01*
X3063809Y-20303095D01*
X3063809Y-20293571D01*
X3073333Y-20274524D01*
X3082857Y-20265000D01*
X3101905Y-20255476D01*
X3140000Y-20255476D01*
X3159048Y-20265000D01*
X3168571Y-20274524D01*
X3178095Y-20293571D01*
X3178095Y-20303095D01*
X3168571Y-20322143D01*
X3159048Y-20331667D01*
X3140000Y-20341190D01*
X3101905Y-20341190D01*
X3082857Y-20350714D01*
X3073333Y-20360238D01*
X3063809Y-20379286D01*
X3063809Y-20417381D01*
X3073333Y-20436429D01*
X3082857Y-20445952D01*
X3101905Y-20455476D01*
X3140000Y-20455476D01*
X3159048Y-20445952D01*
X3168571Y-20436429D01*
X3178095Y-20417381D01*
X3178095Y-20379286D01*
X3168571Y-20360238D01*
X3159048Y-20350714D01*
X3140000Y-20341190D01*
X3301905Y-20255476D02*
X3320952Y-20255476D01*
X3340000Y-20265000D01*
X3349524Y-20274524D01*
X3359048Y-20293571D01*
X3368571Y-20331667D01*
X3368571Y-20379286D01*
X3359048Y-20417381D01*
X3349524Y-20436429D01*
X3340000Y-20445952D01*
X3320952Y-20455476D01*
X3301905Y-20455476D01*
X3282857Y-20445952D01*
X3273333Y-20436429D01*
X3263809Y-20417381D01*
X3254286Y-20379286D01*
X3254286Y-20331667D01*
X3263809Y-20293571D01*
X3273333Y-20274524D01*
X3282857Y-20265000D01*
X3301905Y-20255476D01*
X3492381Y-20255476D02*
X3511428Y-20255476D01*
X3530476Y-20265000D01*
X3540000Y-20274524D01*
X3549524Y-20293571D01*
X3559048Y-20331667D01*
X3559048Y-20379286D01*
X3549524Y-20417381D01*
X3540000Y-20436429D01*
X3530476Y-20445952D01*
X3511428Y-20455476D01*
X3492381Y-20455476D01*
X3473333Y-20445952D01*
X3463809Y-20436429D01*
X3454286Y-20417381D01*
X3444762Y-20379286D01*
X3444762Y-20331667D01*
X3454286Y-20293571D01*
X3463809Y-20274524D01*
X3473333Y-20265000D01*
X3492381Y-20255476D01*
X3644762Y-20455476D02*
X3644762Y-20322143D01*
X3644762Y-20341190D02*
X3654286Y-20331667D01*
X3673333Y-20322143D01*
X3701905Y-20322143D01*
X3720952Y-20331667D01*
X3730476Y-20350714D01*
X3730476Y-20455476D01*
X3730476Y-20350714D02*
X3740000Y-20331667D01*
X3759048Y-20322143D01*
X3787619Y-20322143D01*
X3806667Y-20331667D01*
X3816190Y-20350714D01*
X3816190Y-20455476D01*
X3911428Y-20455476D02*
X3911428Y-20322143D01*
X3911428Y-20341190D02*
X3920952Y-20331667D01*
X3940000Y-20322143D01*
X3968571Y-20322143D01*
X3987619Y-20331667D01*
X3997143Y-20350714D01*
X3997143Y-20455476D01*
X3997143Y-20350714D02*
X4006667Y-20331667D01*
X4025714Y-20322143D01*
X4054286Y-20322143D01*
X4073333Y-20331667D01*
X4082857Y-20350714D01*
X4082857Y-20455476D01*
X4473333Y-20245952D02*
X4301905Y-20503095D01*
X4730476Y-20255476D02*
X4749524Y-20255476D01*
X4768571Y-20265000D01*
X4778095Y-20274524D01*
X4787619Y-20293571D01*
X4797143Y-20331667D01*
X4797143Y-20379286D01*
X4787619Y-20417381D01*
X4778095Y-20436429D01*
X4768571Y-20445952D01*
X4749524Y-20455476D01*
X4730476Y-20455476D01*
X4711429Y-20445952D01*
X4701905Y-20436429D01*
X4692381Y-20417381D01*
X4682857Y-20379286D01*
X4682857Y-20331667D01*
X4692381Y-20293571D01*
X4701905Y-20274524D01*
X4711429Y-20265000D01*
X4730476Y-20255476D01*
X4882857Y-20436429D02*
X4892381Y-20445952D01*
X4882857Y-20455476D01*
X4873333Y-20445952D01*
X4882857Y-20436429D01*
X4882857Y-20455476D01*
X5016190Y-20255476D02*
X5035238Y-20255476D01*
X5054286Y-20265000D01*
X5063810Y-20274524D01*
X5073333Y-20293571D01*
X5082857Y-20331667D01*
X5082857Y-20379286D01*
X5073333Y-20417381D01*
X5063810Y-20436429D01*
X5054286Y-20445952D01*
X5035238Y-20455476D01*
X5016190Y-20455476D01*
X4997143Y-20445952D01*
X4987619Y-20436429D01*
X4978095Y-20417381D01*
X4968571Y-20379286D01*
X4968571Y-20331667D01*
X4978095Y-20293571D01*
X4987619Y-20274524D01*
X4997143Y-20265000D01*
X5016190Y-20255476D01*
X5149524Y-20255476D02*
X5273333Y-20255476D01*
X5206667Y-20331667D01*
X5235238Y-20331667D01*
X5254286Y-20341190D01*
X5263810Y-20350714D01*
X5273333Y-20369762D01*
X5273333Y-20417381D01*
X5263810Y-20436429D01*
X5254286Y-20445952D01*
X5235238Y-20455476D01*
X5178095Y-20455476D01*
X5159048Y-20445952D01*
X5149524Y-20436429D01*
X5463810Y-20455476D02*
X5349524Y-20455476D01*
X5406667Y-20455476D02*
X5406667Y-20255476D01*
X5387619Y-20284048D01*
X5368571Y-20303095D01*
X5349524Y-20312619D01*
X5644762Y-20255476D02*
X5549524Y-20255476D01*
X5540000Y-20350714D01*
X5549524Y-20341190D01*
X5568571Y-20331667D01*
X5616190Y-20331667D01*
X5635238Y-20341190D01*
X5644762Y-20350714D01*
X5654286Y-20369762D01*
X5654286Y-20417381D01*
X5644762Y-20436429D01*
X5635238Y-20445952D01*
X5616190Y-20455476D01*
X5568571Y-20455476D01*
X5549524Y-20445952D01*
X5540000Y-20436429D01*
X5730476Y-20255476D02*
X5730476Y-20293571D01*
X5806667Y-20255476D02*
X5806667Y-20293571D01*
X6101905Y-20531667D02*
X6092381Y-20522143D01*
X6073333Y-20493571D01*
X6063809Y-20474524D01*
X6054286Y-20445952D01*
X6044762Y-20398333D01*
X6044762Y-20360238D01*
X6054286Y-20312619D01*
X6063809Y-20284048D01*
X6073333Y-20265000D01*
X6092381Y-20236429D01*
X6101905Y-20226905D01*
X6263809Y-20322143D02*
X6263809Y-20455476D01*
X6216190Y-20245952D02*
X6168571Y-20388810D01*
X6292381Y-20388810D01*
X6397143Y-20341190D02*
X6378095Y-20331667D01*
X6368571Y-20322143D01*
X6359048Y-20303095D01*
X6359048Y-20293571D01*
X6368571Y-20274524D01*
X6378095Y-20265000D01*
X6397143Y-20255476D01*
X6435238Y-20255476D01*
X6454286Y-20265000D01*
X6463809Y-20274524D01*
X6473333Y-20293571D01*
X6473333Y-20303095D01*
X6463809Y-20322143D01*
X6454286Y-20331667D01*
X6435238Y-20341190D01*
X6397143Y-20341190D01*
X6378095Y-20350714D01*
X6368571Y-20360238D01*
X6359048Y-20379286D01*
X6359048Y-20417381D01*
X6368571Y-20436429D01*
X6378095Y-20445952D01*
X6397143Y-20455476D01*
X6435238Y-20455476D01*
X6454286Y-20445952D01*
X6463809Y-20436429D01*
X6473333Y-20417381D01*
X6473333Y-20379286D01*
X6463809Y-20360238D01*
X6454286Y-20350714D01*
X6435238Y-20341190D01*
X6711428Y-20455476D02*
X6711428Y-20255476D01*
X6797143Y-20455476D02*
X6797143Y-20350714D01*
X6787619Y-20331667D01*
X6768571Y-20322143D01*
X6740000Y-20322143D01*
X6720952Y-20331667D01*
X6711428Y-20341190D01*
X6920952Y-20455476D02*
X6901905Y-20445952D01*
X6892381Y-20436429D01*
X6882857Y-20417381D01*
X6882857Y-20360238D01*
X6892381Y-20341190D01*
X6901905Y-20331667D01*
X6920952Y-20322143D01*
X6949524Y-20322143D01*
X6968571Y-20331667D01*
X6978095Y-20341190D01*
X6987619Y-20360238D01*
X6987619Y-20417381D01*
X6978095Y-20436429D01*
X6968571Y-20445952D01*
X6949524Y-20455476D01*
X6920952Y-20455476D01*
X7101905Y-20455476D02*
X7082857Y-20445952D01*
X7073333Y-20426905D01*
X7073333Y-20255476D01*
X7254286Y-20445952D02*
X7235238Y-20455476D01*
X7197143Y-20455476D01*
X7178095Y-20445952D01*
X7168571Y-20426905D01*
X7168571Y-20350714D01*
X7178095Y-20331667D01*
X7197143Y-20322143D01*
X7235238Y-20322143D01*
X7254286Y-20331667D01*
X7263809Y-20350714D01*
X7263809Y-20369762D01*
X7168571Y-20388810D01*
X7340000Y-20445952D02*
X7359048Y-20455476D01*
X7397143Y-20455476D01*
X7416190Y-20445952D01*
X7425714Y-20426905D01*
X7425714Y-20417381D01*
X7416190Y-20398333D01*
X7397143Y-20388810D01*
X7368571Y-20388810D01*
X7349524Y-20379286D01*
X7340000Y-20360238D01*
X7340000Y-20350714D01*
X7349524Y-20331667D01*
X7368571Y-20322143D01*
X7397143Y-20322143D01*
X7416190Y-20331667D01*
X7492381Y-20531667D02*
X7501905Y-20522143D01*
X7520952Y-20493571D01*
X7530476Y-20474524D01*
X7540000Y-20445952D01*
X7549524Y-20398333D01*
X7549524Y-20360238D01*
X7540000Y-20312619D01*
X7530476Y-20284048D01*
X7520952Y-20265000D01*
X7501905Y-20236429D01*
X7492381Y-20226905D01*
D15*
X2465000Y-20694000D02*
X2530000Y-20629000D01*
X2465000Y-20564000D01*
X2400000Y-20629000D01*
X2465000Y-20694000D01*
D10*
X2892381Y-20719476D02*
X2778095Y-20719476D01*
X2835238Y-20719476D02*
X2835238Y-20519476D01*
X2816190Y-20548048D01*
X2797143Y-20567095D01*
X2778095Y-20576619D01*
X2978095Y-20700429D02*
X2987619Y-20709952D01*
X2978095Y-20719476D01*
X2968571Y-20709952D01*
X2978095Y-20700429D01*
X2978095Y-20719476D01*
X3054286Y-20519476D02*
X3178095Y-20519476D01*
X3111428Y-20595667D01*
X3140000Y-20595667D01*
X3159048Y-20605190D01*
X3168571Y-20614714D01*
X3178095Y-20633762D01*
X3178095Y-20681381D01*
X3168571Y-20700429D01*
X3159048Y-20709952D01*
X3140000Y-20719476D01*
X3082857Y-20719476D01*
X3063809Y-20709952D01*
X3054286Y-20700429D01*
X3301905Y-20519476D02*
X3320952Y-20519476D01*
X3340000Y-20529000D01*
X3349524Y-20538524D01*
X3359048Y-20557571D01*
X3368571Y-20595667D01*
X3368571Y-20643286D01*
X3359048Y-20681381D01*
X3349524Y-20700429D01*
X3340000Y-20709952D01*
X3320952Y-20719476D01*
X3301905Y-20719476D01*
X3282857Y-20709952D01*
X3273333Y-20700429D01*
X3263809Y-20681381D01*
X3254286Y-20643286D01*
X3254286Y-20595667D01*
X3263809Y-20557571D01*
X3273333Y-20538524D01*
X3282857Y-20529000D01*
X3301905Y-20519476D01*
X3492381Y-20519476D02*
X3511428Y-20519476D01*
X3530476Y-20529000D01*
X3540000Y-20538524D01*
X3549524Y-20557571D01*
X3559048Y-20595667D01*
X3559048Y-20643286D01*
X3549524Y-20681381D01*
X3540000Y-20700429D01*
X3530476Y-20709952D01*
X3511428Y-20719476D01*
X3492381Y-20719476D01*
X3473333Y-20709952D01*
X3463809Y-20700429D01*
X3454286Y-20681381D01*
X3444762Y-20643286D01*
X3444762Y-20595667D01*
X3454286Y-20557571D01*
X3463809Y-20538524D01*
X3473333Y-20529000D01*
X3492381Y-20519476D01*
X3644762Y-20719476D02*
X3644762Y-20586143D01*
X3644762Y-20605190D02*
X3654286Y-20595667D01*
X3673333Y-20586143D01*
X3701905Y-20586143D01*
X3720952Y-20595667D01*
X3730476Y-20614714D01*
X3730476Y-20719476D01*
X3730476Y-20614714D02*
X3740000Y-20595667D01*
X3759048Y-20586143D01*
X3787619Y-20586143D01*
X3806667Y-20595667D01*
X3816190Y-20614714D01*
X3816190Y-20719476D01*
X3911428Y-20719476D02*
X3911428Y-20586143D01*
X3911428Y-20605190D02*
X3920952Y-20595667D01*
X3940000Y-20586143D01*
X3968571Y-20586143D01*
X3987619Y-20595667D01*
X3997143Y-20614714D01*
X3997143Y-20719476D01*
X3997143Y-20614714D02*
X4006667Y-20595667D01*
X4025714Y-20586143D01*
X4054286Y-20586143D01*
X4073333Y-20595667D01*
X4082857Y-20614714D01*
X4082857Y-20719476D01*
X4473333Y-20509952D02*
X4301905Y-20767095D01*
X4730476Y-20519476D02*
X4749524Y-20519476D01*
X4768571Y-20529000D01*
X4778095Y-20538524D01*
X4787619Y-20557571D01*
X4797143Y-20595667D01*
X4797143Y-20643286D01*
X4787619Y-20681381D01*
X4778095Y-20700429D01*
X4768571Y-20709952D01*
X4749524Y-20719476D01*
X4730476Y-20719476D01*
X4711429Y-20709952D01*
X4701905Y-20700429D01*
X4692381Y-20681381D01*
X4682857Y-20643286D01*
X4682857Y-20595667D01*
X4692381Y-20557571D01*
X4701905Y-20538524D01*
X4711429Y-20529000D01*
X4730476Y-20519476D01*
X4882857Y-20700429D02*
X4892381Y-20709952D01*
X4882857Y-20719476D01*
X4873333Y-20709952D01*
X4882857Y-20700429D01*
X4882857Y-20719476D01*
X5016190Y-20519476D02*
X5035238Y-20519476D01*
X5054286Y-20529000D01*
X5063810Y-20538524D01*
X5073333Y-20557571D01*
X5082857Y-20595667D01*
X5082857Y-20643286D01*
X5073333Y-20681381D01*
X5063810Y-20700429D01*
X5054286Y-20709952D01*
X5035238Y-20719476D01*
X5016190Y-20719476D01*
X4997143Y-20709952D01*
X4987619Y-20700429D01*
X4978095Y-20681381D01*
X4968571Y-20643286D01*
X4968571Y-20595667D01*
X4978095Y-20557571D01*
X4987619Y-20538524D01*
X4997143Y-20529000D01*
X5016190Y-20519476D01*
X5263810Y-20519476D02*
X5168571Y-20519476D01*
X5159048Y-20614714D01*
X5168571Y-20605190D01*
X5187619Y-20595667D01*
X5235238Y-20595667D01*
X5254286Y-20605190D01*
X5263810Y-20614714D01*
X5273333Y-20633762D01*
X5273333Y-20681381D01*
X5263810Y-20700429D01*
X5254286Y-20709952D01*
X5235238Y-20719476D01*
X5187619Y-20719476D01*
X5168571Y-20709952D01*
X5159048Y-20700429D01*
X5463810Y-20719476D02*
X5349524Y-20719476D01*
X5406667Y-20719476D02*
X5406667Y-20519476D01*
X5387619Y-20548048D01*
X5368571Y-20567095D01*
X5349524Y-20576619D01*
X5540000Y-20538524D02*
X5549524Y-20529000D01*
X5568571Y-20519476D01*
X5616190Y-20519476D01*
X5635238Y-20529000D01*
X5644762Y-20538524D01*
X5654286Y-20557571D01*
X5654286Y-20576619D01*
X5644762Y-20605190D01*
X5530476Y-20719476D01*
X5654286Y-20719476D01*
X5730476Y-20519476D02*
X5730476Y-20557571D01*
X5806667Y-20519476D02*
X5806667Y-20557571D01*
X6101905Y-20795667D02*
X6092381Y-20786143D01*
X6073333Y-20757571D01*
X6063809Y-20738524D01*
X6054286Y-20709952D01*
X6044762Y-20662333D01*
X6044762Y-20624238D01*
X6054286Y-20576619D01*
X6063809Y-20548048D01*
X6073333Y-20529000D01*
X6092381Y-20500429D01*
X6101905Y-20490905D01*
X6263809Y-20586143D02*
X6263809Y-20719476D01*
X6216190Y-20509952D02*
X6168571Y-20652810D01*
X6292381Y-20652810D01*
X6520952Y-20719476D02*
X6520952Y-20519476D01*
X6606667Y-20719476D02*
X6606667Y-20614714D01*
X6597143Y-20595667D01*
X6578095Y-20586143D01*
X6549524Y-20586143D01*
X6530476Y-20595667D01*
X6520952Y-20605190D01*
X6730476Y-20719476D02*
X6711428Y-20709952D01*
X6701905Y-20700429D01*
X6692381Y-20681381D01*
X6692381Y-20624238D01*
X6701905Y-20605190D01*
X6711428Y-20595667D01*
X6730476Y-20586143D01*
X6759048Y-20586143D01*
X6778095Y-20595667D01*
X6787619Y-20605190D01*
X6797143Y-20624238D01*
X6797143Y-20681381D01*
X6787619Y-20700429D01*
X6778095Y-20709952D01*
X6759048Y-20719476D01*
X6730476Y-20719476D01*
X6911428Y-20719476D02*
X6892381Y-20709952D01*
X6882857Y-20690905D01*
X6882857Y-20519476D01*
X7063809Y-20709952D02*
X7044762Y-20719476D01*
X7006667Y-20719476D01*
X6987619Y-20709952D01*
X6978095Y-20690905D01*
X6978095Y-20614714D01*
X6987619Y-20595667D01*
X7006667Y-20586143D01*
X7044762Y-20586143D01*
X7063809Y-20595667D01*
X7073333Y-20614714D01*
X7073333Y-20633762D01*
X6978095Y-20652810D01*
X7149524Y-20709952D02*
X7168571Y-20719476D01*
X7206667Y-20719476D01*
X7225714Y-20709952D01*
X7235238Y-20690905D01*
X7235238Y-20681381D01*
X7225714Y-20662333D01*
X7206667Y-20652810D01*
X7178095Y-20652810D01*
X7159048Y-20643286D01*
X7149524Y-20624238D01*
X7149524Y-20614714D01*
X7159048Y-20595667D01*
X7178095Y-20586143D01*
X7206667Y-20586143D01*
X7225714Y-20595667D01*
X7301905Y-20795667D02*
X7311428Y-20786143D01*
X7330476Y-20757571D01*
X7340000Y-20738524D01*
X7349524Y-20709952D01*
X7359048Y-20662333D01*
X7359048Y-20624238D01*
X7349524Y-20576619D01*
X7340000Y-20548048D01*
X7330476Y-20529000D01*
X7311428Y-20500429D01*
X7301905Y-20490905D01*
M02*
