%TF.GenerationSoftware,KiCad,Pcbnew,(6.0.7)*%
%TF.CreationDate,2022-08-10T19:12:11+02:00*%
%TF.ProjectId,MAKE_PCB,4d414b45-5f50-4434-922e-6b696361645f,rev?*%
%TF.SameCoordinates,Original*%
%TF.FileFunction,Copper,L1,Top*%
%TF.FilePolarity,Positive*%
%FSLAX46Y46*%
G04 Gerber Fmt 4.6, Leading zero omitted, Abs format (unit mm)*
G04 Created by KiCad (PCBNEW (6.0.7)) date 2022-08-10 19:12:11*
%MOMM*%
%LPD*%
G01*
G04 APERTURE LIST*
%TA.AperFunction,ComponentPad*%
%ADD10C,1.000000*%
%TD*%
%TA.AperFunction,ComponentPad*%
%ADD11C,2.100000*%
%TD*%
%TA.AperFunction,ComponentPad*%
%ADD12R,2.100000X2.100000*%
%TD*%
%TA.AperFunction,SMDPad,CuDef*%
%ADD13R,1.100000X2.000000*%
%TD*%
%TA.AperFunction,SMDPad,CuDef*%
%ADD14R,2.000000X1.100000*%
%TD*%
%TA.AperFunction,ComponentPad*%
%ADD15R,1.524000X1.524000*%
%TD*%
%TA.AperFunction,ComponentPad*%
%ADD16C,1.524000*%
%TD*%
%TA.AperFunction,ComponentPad*%
%ADD17C,1.600000*%
%TD*%
%TA.AperFunction,ComponentPad*%
%ADD18R,1.600000X1.600000*%
%TD*%
%TA.AperFunction,ComponentPad*%
%ADD19O,1.600000X1.600000*%
%TD*%
%TA.AperFunction,ComponentPad*%
%ADD20C,1.500000*%
%TD*%
%TA.AperFunction,ViaPad*%
%ADD21C,0.800000*%
%TD*%
%TA.AperFunction,Conductor*%
%ADD22C,0.500000*%
%TD*%
%TA.AperFunction,Conductor*%
%ADD23C,0.250000*%
%TD*%
G04 APERTURE END LIST*
D10*
%TO.P,5V,1,1*%
%TO.N,Net-(ATmega168V-10PI1-Pad20)*%
X30480000Y-167640000D03*
%TD*%
%TO.P,Fancy,1,1*%
%TO.N,Net-(ATmega168V-10PI1-Pad23)*%
X74930000Y-148590000D03*
%TD*%
%TO.P,GND,1,1*%
%TO.N,Net-(ATmega168V-10PI1-Pad22)*%
X81280000Y-148590000D03*
%TD*%
%TO.P,B,1,1*%
%TO.N,Net-(ATmega168V-10PI1-Pad24)*%
X72390000Y-148590000D03*
%TD*%
%TO.P,R,1,1*%
%TO.N,Net-(R6-Pad1)*%
X67310000Y-148590000D03*
%TD*%
%TO.P,DI,1,1*%
%TO.N,Net-(ATmega168V-10PI1-Pad17)*%
X36830000Y-148590000D03*
%TD*%
%TO.P,CI,1,1*%
%TO.N,Net-(ATmega168V-10PI1-Pad19)*%
X33020000Y-148590000D03*
%TD*%
%TO.P,G,1,1*%
%TO.N,Net-(G1-Pad1)*%
X69850000Y-148590000D03*
%TD*%
%TO.P,6V,1,1*%
%TO.N,Net-(C1-Pad1)*%
X30480000Y-163830000D03*
%TD*%
D11*
%TO.P,CR2450_2,2,-*%
%TO.N,Net-(CR2450_1-Pad1)*%
X49890914Y-130810000D03*
D12*
%TO.P,CR2450_2,1,+*%
%TO.N,Net-(CR2450_2-Pad1)*%
X29890914Y-130810000D03*
%TD*%
D13*
%TO.P,D9,1,DI*%
%TO.N,Net-(D8-Pad6)*%
X73328000Y-121044000D03*
%TO.P,D9,2,CI*%
%TO.N,Net-(D8-Pad5)*%
X71628000Y-121044000D03*
%TO.P,D9,3,GND*%
%TO.N,Net-(ATmega168V-10PI1-Pad22)*%
X69928000Y-121044000D03*
%TO.P,D9,4,VCC*%
%TO.N,Net-(ATmega168V-10PI1-Pad20)*%
X69928000Y-125844000D03*
%TO.P,D9,5,CO*%
%TO.N,unconnected-(D9-Pad5)*%
X71628000Y-125844000D03*
%TO.P,D9,6,DO*%
%TO.N,unconnected-(D9-Pad6)*%
X73328000Y-125844000D03*
%TD*%
%TO.P,D8,1,DI*%
%TO.N,Net-(D7-Pad6)*%
X73328000Y-112916000D03*
%TO.P,D8,2,CI*%
%TO.N,Net-(D7-Pad5)*%
X71628000Y-112916000D03*
%TO.P,D8,3,GND*%
%TO.N,Net-(ATmega168V-10PI1-Pad22)*%
X69928000Y-112916000D03*
%TO.P,D8,4,VCC*%
%TO.N,Net-(ATmega168V-10PI1-Pad20)*%
X69928000Y-117716000D03*
%TO.P,D8,5,CO*%
%TO.N,Net-(D8-Pad5)*%
X71628000Y-117716000D03*
%TO.P,D8,6,DO*%
%TO.N,Net-(D8-Pad6)*%
X73328000Y-117716000D03*
%TD*%
D14*
%TO.P,D7,6,DO*%
%TO.N,Net-(D7-Pad6)*%
X70472000Y-105996000D03*
%TO.P,D7,5,CO*%
%TO.N,Net-(D7-Pad5)*%
X70472000Y-107696000D03*
%TO.P,D7,4,VCC*%
%TO.N,Net-(ATmega168V-10PI1-Pad20)*%
X70472000Y-109396000D03*
%TO.P,D7,3,GND*%
%TO.N,Net-(ATmega168V-10PI1-Pad22)*%
X65672000Y-109396000D03*
%TO.P,D7,2,CI*%
%TO.N,Net-(D6-Pad5)*%
X65672000Y-107696000D03*
%TO.P,D7,1,DI*%
%TO.N,Net-(D6-Pad6)*%
X65672000Y-105996000D03*
%TD*%
D13*
%TO.P,D6,1,DI*%
%TO.N,Net-(D5-Pad6)*%
X62308000Y-117716000D03*
%TO.P,D6,2,CI*%
%TO.N,Net-(D5-Pad5)*%
X64008000Y-117716000D03*
%TO.P,D6,3,GND*%
%TO.N,Net-(ATmega168V-10PI1-Pad22)*%
X65708000Y-117716000D03*
%TO.P,D6,4,VCC*%
%TO.N,Net-(ATmega168V-10PI1-Pad20)*%
X65708000Y-112916000D03*
%TO.P,D6,5,CO*%
%TO.N,Net-(D6-Pad5)*%
X64008000Y-112916000D03*
%TO.P,D6,6,DO*%
%TO.N,Net-(D6-Pad6)*%
X62308000Y-112916000D03*
%TD*%
%TO.P,D2,6,DO*%
%TO.N,Net-(D2-Pad6)*%
X45544000Y-112916000D03*
%TO.P,D2,5,CO*%
%TO.N,Net-(D2-Pad5)*%
X47244000Y-112916000D03*
%TO.P,D2,4,VCC*%
%TO.N,Net-(ATmega168V-10PI1-Pad20)*%
X48944000Y-112916000D03*
%TO.P,D2,3,GND*%
%TO.N,Net-(ATmega168V-10PI1-Pad22)*%
X48944000Y-117716000D03*
%TO.P,D2,2,CI*%
%TO.N,Net-(D1-Pad5)*%
X47244000Y-117716000D03*
%TO.P,D2,1,DI*%
%TO.N,Net-(D1-Pad6)*%
X45544000Y-117716000D03*
%TD*%
D15*
%TO.P,L7805CV1,1,IN*%
%TO.N,Net-(C1-Pad1)*%
X76200000Y-181610000D03*
D16*
%TO.P,L7805CV1,2,GND*%
%TO.N,Net-(ATmega168V-10PI1-Pad22)*%
X76200000Y-179070000D03*
%TO.P,L7805CV1,3,OUT*%
%TO.N,Net-(ATmega168V-10PI1-Pad20)*%
X76200000Y-176530000D03*
%TD*%
D14*
%TO.P,D3,6,DO*%
%TO.N,Net-(D3-Pad6)*%
X53200000Y-105996000D03*
%TO.P,D3,5,CO*%
%TO.N,Net-(D3-Pad5)*%
X53200000Y-107696000D03*
%TO.P,D3,4,VCC*%
%TO.N,Net-(ATmega168V-10PI1-Pad20)*%
X53200000Y-109396000D03*
%TO.P,D3,3,GND*%
%TO.N,Net-(ATmega168V-10PI1-Pad22)*%
X48400000Y-109396000D03*
%TO.P,D3,2,CI*%
%TO.N,Net-(D2-Pad5)*%
X48400000Y-107696000D03*
%TO.P,D3,1,DI*%
%TO.N,Net-(D2-Pad6)*%
X48400000Y-105996000D03*
%TD*%
D17*
%TO.P,C3,1*%
%TO.N,Net-(ATmega168V-10PI1-Pad10)*%
X46990000Y-177840000D03*
%TO.P,C3,2*%
%TO.N,Net-(ATmega168V-10PI1-Pad22)*%
X46990000Y-182840000D03*
%TD*%
%TO.P,C4,1*%
%TO.N,Net-(ATmega168V-10PI1-Pad9)*%
X41910000Y-177840000D03*
%TO.P,C4,2*%
%TO.N,Net-(ATmega168V-10PI1-Pad22)*%
X41910000Y-182840000D03*
%TD*%
D13*
%TO.P,D1,6,DO*%
%TO.N,Net-(D1-Pad6)*%
X45544000Y-121044000D03*
%TO.P,D1,5,CO*%
%TO.N,Net-(D1-Pad5)*%
X47244000Y-121044000D03*
%TO.P,D1,4,VCC*%
%TO.N,Net-(ATmega168V-10PI1-Pad20)*%
X48944000Y-121044000D03*
%TO.P,D1,3,GND*%
%TO.N,Net-(ATmega168V-10PI1-Pad22)*%
X48944000Y-125844000D03*
%TO.P,D1,2,CI*%
%TO.N,Net-(ATmega168V-10PI1-Pad19)*%
X47244000Y-125844000D03*
%TO.P,D1,1,DI*%
%TO.N,Net-(ATmega168V-10PI1-Pad17)*%
X45544000Y-125844000D03*
%TD*%
D16*
%TO.P,Button1,1,1*%
%TO.N,Net-(R6-Pad1)*%
X86995000Y-151130000D03*
%TO.P,Button1,2,2*%
%TO.N,Net-(ATmega168V-10PI1-Pad20)*%
X92075000Y-151130000D03*
%TD*%
%TO.P,ProgramingPins,1,Pin_1*%
%TO.N,Net-(ATmega168V-10PI1-Pad20)*%
X30480000Y-182880000D03*
%TO.P,ProgramingPins,2,Pin_2*%
%TO.N,Net-(ATmega168V-10PI1-Pad22)*%
X30480000Y-180340000D03*
%TO.P,ProgramingPins,3,Pin_3*%
%TO.N,Net-(ATmega168V-10PI1-Pad3)*%
X30480000Y-177800000D03*
%TO.P,ProgramingPins,4,Pin_4*%
%TO.N,Net-(ATmega168V-10PI1-Pad2)*%
X30480000Y-175260000D03*
%TO.P,ProgramingPins,5,Pin_5*%
%TO.N,Net-(ATmega168V-10PI1-Pad1)*%
X30480000Y-172720000D03*
%TD*%
D18*
%TO.P,C2,1*%
%TO.N,Net-(ATmega168V-10PI1-Pad20)*%
X68580000Y-176530000D03*
D17*
%TO.P,C2,2*%
%TO.N,Net-(ATmega168V-10PI1-Pad22)*%
X68580000Y-179030000D03*
%TD*%
D16*
%TO.P,POWER,1,1*%
%TO.N,Net-(C1-Pad1)*%
X30480000Y-154305000D03*
%TO.P,POWER,2,2*%
%TO.N,Net-(CR2450_2-Pad1)*%
X30480000Y-156845000D03*
%TO.P,POWER,3,3*%
%TO.N,unconnected-(POWER1-Pad3)*%
X30480000Y-159385000D03*
%TD*%
D17*
%TO.P,R2,1*%
%TO.N,Net-(ATmega168V-10PI1-Pad22)*%
X77470000Y-161290000D03*
D19*
%TO.P,R2,2*%
%TO.N,Net-(G1-Pad1)*%
X67310000Y-161290000D03*
%TD*%
D18*
%TO.P,ATmega-XXXX-X,1,~{RESET}/PC6*%
%TO.N,Net-(ATmega168V-10PI1-Pad1)*%
X54620000Y-149870000D03*
D19*
%TO.P,ATmega-XXXX-X,2,PD0*%
%TO.N,Net-(ATmega168V-10PI1-Pad2)*%
X54620000Y-152410000D03*
%TO.P,ATmega-XXXX-X,3,PD1*%
%TO.N,Net-(ATmega168V-10PI1-Pad3)*%
X54620000Y-154950000D03*
%TO.P,ATmega-XXXX-X,4,PD2*%
%TO.N,unconnected-(ATmega168V-10PI1-Pad4)*%
X54620000Y-157490000D03*
%TO.P,ATmega-XXXX-X,5,PD3*%
%TO.N,unconnected-(ATmega168V-10PI1-Pad5)*%
X54620000Y-160030000D03*
%TO.P,ATmega-XXXX-X,6,PD4*%
%TO.N,unconnected-(ATmega168V-10PI1-Pad6)*%
X54620000Y-162570000D03*
%TO.P,ATmega-XXXX-X,7,VCC*%
%TO.N,Net-(ATmega168V-10PI1-Pad20)*%
X54620000Y-165110000D03*
%TO.P,ATmega-XXXX-X,8,GND*%
%TO.N,Net-(ATmega168V-10PI1-Pad22)*%
X54620000Y-167650000D03*
%TO.P,ATmega-XXXX-X,9,XTAL1/PB6*%
%TO.N,Net-(ATmega168V-10PI1-Pad9)*%
X54620000Y-170190000D03*
%TO.P,ATmega-XXXX-X,10,XTAL2/PB7*%
%TO.N,Net-(ATmega168V-10PI1-Pad10)*%
X54620000Y-172730000D03*
%TO.P,ATmega-XXXX-X,11,PD5*%
%TO.N,unconnected-(ATmega168V-10PI1-Pad11)*%
X54620000Y-175270000D03*
%TO.P,ATmega-XXXX-X,12,PD6*%
%TO.N,unconnected-(ATmega168V-10PI1-Pad12)*%
X54620000Y-177810000D03*
%TO.P,ATmega-XXXX-X,13,PD7*%
%TO.N,unconnected-(ATmega168V-10PI1-Pad13)*%
X54620000Y-180350000D03*
%TO.P,ATmega-XXXX-X,14,PB0*%
%TO.N,unconnected-(ATmega168V-10PI1-Pad14)*%
X54620000Y-182890000D03*
%TO.P,ATmega-XXXX-X,15,PB1*%
%TO.N,unconnected-(ATmega168V-10PI1-Pad15)*%
X62240000Y-182890000D03*
%TO.P,ATmega-XXXX-X,16,PB2*%
%TO.N,unconnected-(ATmega168V-10PI1-Pad16)*%
X62240000Y-180350000D03*
%TO.P,ATmega-XXXX-X,17,PB3*%
%TO.N,Net-(ATmega168V-10PI1-Pad17)*%
X62240000Y-177810000D03*
%TO.P,ATmega-XXXX-X,18,PB4*%
%TO.N,unconnected-(ATmega168V-10PI1-Pad18)*%
X62240000Y-175270000D03*
%TO.P,ATmega-XXXX-X,19,PB5*%
%TO.N,Net-(ATmega168V-10PI1-Pad19)*%
X62240000Y-172730000D03*
%TO.P,ATmega-XXXX-X,20,AVCC*%
%TO.N,Net-(ATmega168V-10PI1-Pad20)*%
X62240000Y-170190000D03*
%TO.P,ATmega-XXXX-X,21,AREF*%
X62240000Y-167650000D03*
%TO.P,ATmega-XXXX-X,22,GND*%
%TO.N,Net-(ATmega168V-10PI1-Pad22)*%
X62240000Y-165110000D03*
%TO.P,ATmega-XXXX-X,23,PC0*%
%TO.N,Net-(ATmega168V-10PI1-Pad23)*%
X62240000Y-162570000D03*
%TO.P,ATmega-XXXX-X,24,PC1*%
%TO.N,Net-(ATmega168V-10PI1-Pad24)*%
X62240000Y-160030000D03*
%TO.P,ATmega-XXXX-X,25,PC2*%
%TO.N,Net-(G1-Pad1)*%
X62240000Y-157490000D03*
%TO.P,ATmega-XXXX-X,26,PC3*%
%TO.N,Net-(R6-Pad1)*%
X62240000Y-154950000D03*
%TO.P,ATmega-XXXX-X,27,PC4*%
%TO.N,unconnected-(ATmega168V-10PI1-Pad27)*%
X62240000Y-152410000D03*
%TO.P,ATmega-XXXX-X,28,PC5*%
%TO.N,unconnected-(ATmega168V-10PI1-Pad28)*%
X62240000Y-149870000D03*
%TD*%
D14*
%TO.P,D5,1,DI*%
%TO.N,Net-(D4-Pad6)*%
X57036000Y-121744000D03*
%TO.P,D5,2,CI*%
%TO.N,Net-(D4-Pad5)*%
X57036000Y-123444000D03*
%TO.P,D5,3,GND*%
%TO.N,Net-(ATmega168V-10PI1-Pad22)*%
X57036000Y-125144000D03*
%TO.P,D5,4,VCC*%
%TO.N,Net-(ATmega168V-10PI1-Pad20)*%
X61836000Y-125144000D03*
%TO.P,D5,5,CO*%
%TO.N,Net-(D5-Pad5)*%
X61836000Y-123444000D03*
%TO.P,D5,6,DO*%
%TO.N,Net-(D5-Pad6)*%
X61836000Y-121744000D03*
%TD*%
D16*
%TO.P,Button4,1,1*%
%TO.N,Net-(ATmega168V-10PI1-Pad23)*%
X86995000Y-181610000D03*
%TO.P,Button4,2,2*%
%TO.N,Net-(ATmega168V-10PI1-Pad20)*%
X92075000Y-181610000D03*
%TD*%
D17*
%TO.P,R5,1*%
%TO.N,Net-(ATmega168V-10PI1-Pad1)*%
X50800000Y-149860000D03*
D19*
%TO.P,R5,2*%
%TO.N,Net-(ATmega168V-10PI1-Pad20)*%
X40640000Y-149860000D03*
%TD*%
D17*
%TO.P,R1,1*%
%TO.N,Net-(ATmega168V-10PI1-Pad22)*%
X77470000Y-156210000D03*
D19*
%TO.P,R1,2*%
%TO.N,Net-(R6-Pad1)*%
X67310000Y-156210000D03*
%TD*%
D16*
%TO.P,Button2,1,1*%
%TO.N,Net-(G1-Pad1)*%
X86995000Y-160020000D03*
%TO.P,Button2,2,2*%
%TO.N,Net-(ATmega168V-10PI1-Pad20)*%
X92075000Y-160020000D03*
%TD*%
D20*
%TO.P,Crystal,1,1*%
%TO.N,Net-(ATmega168V-10PI1-Pad9)*%
X42000000Y-172720000D03*
%TO.P,Crystal,2,2*%
%TO.N,Net-(ATmega168V-10PI1-Pad10)*%
X46880000Y-172720000D03*
%TD*%
D16*
%TO.P,Button3,1,1*%
%TO.N,Net-(ATmega168V-10PI1-Pad24)*%
X86995000Y-168910000D03*
%TO.P,Button3,2,2*%
%TO.N,Net-(ATmega168V-10PI1-Pad20)*%
X92075000Y-168910000D03*
%TD*%
D17*
%TO.P,R4,1*%
%TO.N,Net-(ATmega168V-10PI1-Pad22)*%
X77470000Y-171450000D03*
D19*
%TO.P,R4,2*%
%TO.N,Net-(ATmega168V-10PI1-Pad23)*%
X67310000Y-171450000D03*
%TD*%
D13*
%TO.P,D4,1,DI*%
%TO.N,Net-(D3-Pad6)*%
X56564000Y-112916000D03*
%TO.P,D4,2,CI*%
%TO.N,Net-(D3-Pad5)*%
X54864000Y-112916000D03*
%TO.P,D4,3,GND*%
%TO.N,Net-(ATmega168V-10PI1-Pad22)*%
X53164000Y-112916000D03*
%TO.P,D4,4,VCC*%
%TO.N,Net-(ATmega168V-10PI1-Pad20)*%
X53164000Y-117716000D03*
%TO.P,D4,5,CO*%
%TO.N,Net-(D4-Pad5)*%
X54864000Y-117716000D03*
%TO.P,D4,6,DO*%
%TO.N,Net-(D4-Pad6)*%
X56564000Y-117716000D03*
%TD*%
D18*
%TO.P,C1,1*%
%TO.N,Net-(C1-Pad1)*%
X68580000Y-185420000D03*
D17*
%TO.P,C1,2*%
%TO.N,Net-(ATmega168V-10PI1-Pad22)*%
X68580000Y-182920000D03*
%TD*%
%TO.P,R3,1*%
%TO.N,Net-(ATmega168V-10PI1-Pad22)*%
X77470000Y-166370000D03*
D19*
%TO.P,R3,2*%
%TO.N,Net-(ATmega168V-10PI1-Pad24)*%
X67310000Y-166370000D03*
%TD*%
D12*
%TO.P,CR2450_1,1,+*%
%TO.N,Net-(CR2450_1-Pad1)*%
X64180914Y-130810000D03*
D11*
%TO.P,CR2450_1,2,-*%
%TO.N,Net-(ATmega168V-10PI1-Pad22)*%
X84180914Y-130810000D03*
%TD*%
D21*
%TO.N,Net-(ATmega168V-10PI1-Pad17)*%
X58420000Y-144780000D03*
%TO.N,Net-(ATmega168V-10PI1-Pad19)*%
X59690000Y-144780000D03*
%TO.N,Net-(ATmega168V-10PI1-Pad22)*%
X48260000Y-110744000D03*
X51816000Y-113284000D03*
X50800000Y-117856000D03*
X50292000Y-125984000D03*
X56896000Y-126492000D03*
X67564000Y-117856000D03*
X65532000Y-110744000D03*
X68580000Y-112776000D03*
X68580000Y-121412000D03*
%TD*%
D22*
%TO.N,Net-(ATmega168V-10PI1-Pad20)*%
X34925000Y-167640000D02*
X30480000Y-167640000D01*
X35242500Y-167322500D02*
X34925000Y-167640000D01*
X35242500Y-167322500D02*
X32385000Y-170180000D01*
X40640000Y-161925000D02*
X35242500Y-167322500D01*
%TO.N,Net-(C1-Pad1)*%
X26670000Y-160020000D02*
X30480000Y-163830000D01*
X26670000Y-160020000D02*
X26670000Y-158115000D01*
X26670000Y-164846000D02*
X26670000Y-160020000D01*
%TO.N,Net-(ATmega168V-10PI1-Pad20)*%
X28575000Y-170180000D02*
X32385000Y-170180000D01*
%TO.N,Net-(C1-Pad1)*%
X26670000Y-181610000D02*
X26670000Y-164846000D01*
D23*
%TO.N,Net-(ATmega168V-10PI1-Pad17)*%
X56896000Y-143256000D02*
X58420000Y-144780000D01*
X48260000Y-143256000D02*
X56896000Y-143256000D01*
X45544000Y-140540000D02*
X48260000Y-143256000D01*
X45544000Y-125844000D02*
X45544000Y-140540000D01*
%TO.N,Net-(ATmega168V-10PI1-Pad19)*%
X59690000Y-144780000D02*
X56642000Y-141732000D01*
X48768000Y-141732000D02*
X47244000Y-140208000D01*
X56642000Y-141732000D02*
X48768000Y-141732000D01*
X47244000Y-125844000D02*
X47244000Y-140208000D01*
D22*
%TO.N,Net-(ATmega168V-10PI1-Pad22)*%
X65532000Y-109536000D02*
X65672000Y-109396000D01*
X65532000Y-110744000D02*
X65532000Y-109536000D01*
X69788000Y-112776000D02*
X69928000Y-112916000D01*
X68580000Y-112776000D02*
X69788000Y-112776000D01*
X65848000Y-117856000D02*
X65708000Y-117716000D01*
X67564000Y-117856000D02*
X65848000Y-117856000D01*
X69560000Y-121412000D02*
X69928000Y-121044000D01*
X68580000Y-121412000D02*
X69560000Y-121412000D01*
X56896000Y-126492000D02*
X56896000Y-125284000D01*
X56896000Y-125284000D02*
X57036000Y-125144000D01*
X48260000Y-109536000D02*
X48400000Y-109396000D01*
X48260000Y-110744000D02*
X48260000Y-109536000D01*
X52796000Y-113284000D02*
X53164000Y-112916000D01*
X51816000Y-113284000D02*
X52796000Y-113284000D01*
X49084000Y-117856000D02*
X48944000Y-117716000D01*
X50800000Y-117856000D02*
X49084000Y-117856000D01*
X49084000Y-125984000D02*
X48944000Y-125844000D01*
X50292000Y-125984000D02*
X49084000Y-125984000D01*
%TO.N,Net-(ATmega168V-10PI1-Pad20)*%
X69228000Y-125844000D02*
X67056000Y-128016000D01*
X67056000Y-128016000D02*
X64516000Y-128016000D01*
X69928000Y-125844000D02*
X69228000Y-125844000D01*
X66952000Y-112916000D02*
X70472000Y-109396000D01*
X65708000Y-112916000D02*
X66952000Y-112916000D01*
X69928000Y-117136000D02*
X65708000Y-112916000D01*
X69928000Y-117716000D02*
X69928000Y-117136000D01*
X61836000Y-125144000D02*
X62500000Y-125144000D01*
X62500000Y-125144000D02*
X69928000Y-117716000D01*
X61836000Y-125336000D02*
X61836000Y-125144000D01*
X55880000Y-128016000D02*
X64516000Y-128016000D01*
X64516000Y-128016000D02*
X61836000Y-125336000D01*
X53086000Y-125222000D02*
X55880000Y-128016000D01*
X49680000Y-112916000D02*
X53200000Y-109396000D01*
X48944000Y-112916000D02*
X49680000Y-112916000D01*
X48944000Y-113496000D02*
X48944000Y-112916000D01*
X53164000Y-117716000D02*
X48944000Y-113496000D01*
X53086000Y-125222000D02*
X53164000Y-125144000D01*
X53086000Y-125222000D02*
X48944000Y-121080000D01*
X53164000Y-125144000D02*
X53164000Y-117716000D01*
X48944000Y-121080000D02*
X48944000Y-121044000D01*
X69928000Y-128856000D02*
X69928000Y-125844000D01*
X69928000Y-141908000D02*
X69928000Y-128856000D01*
X65532000Y-146304000D02*
X69928000Y-141908000D01*
X44196000Y-146304000D02*
X65532000Y-146304000D01*
X40640000Y-149860000D02*
X44196000Y-146304000D01*
D23*
%TO.N,Net-(D5-Pad5)*%
X63086000Y-123444000D02*
X61836000Y-123444000D01*
X64008000Y-122522000D02*
X63086000Y-123444000D01*
X64008000Y-117716000D02*
X64008000Y-122522000D01*
%TO.N,Net-(D5-Pad6)*%
X62308000Y-121272000D02*
X61836000Y-121744000D01*
X62308000Y-117716000D02*
X62308000Y-121272000D01*
%TO.N,Net-(D4-Pad6)*%
X56564000Y-121272000D02*
X57036000Y-121744000D01*
X56564000Y-117716000D02*
X56564000Y-121272000D01*
%TO.N,Net-(D4-Pad5)*%
X54864000Y-122522000D02*
X55786000Y-123444000D01*
X54864000Y-117716000D02*
X54864000Y-122522000D01*
X55786000Y-123444000D02*
X57036000Y-123444000D01*
%TO.N,Net-(D8-Pad6)*%
X73328000Y-121044000D02*
X73328000Y-117716000D01*
%TO.N,Net-(D8-Pad5)*%
X71628000Y-121044000D02*
X71628000Y-117716000D01*
%TO.N,Net-(D1-Pad5)*%
X47244000Y-121044000D02*
X47244000Y-117716000D01*
%TO.N,Net-(D1-Pad6)*%
X45544000Y-121044000D02*
X45544000Y-117716000D01*
%TO.N,Net-(D6-Pad5)*%
X64516000Y-107696000D02*
X65672000Y-107696000D01*
X64008000Y-108204000D02*
X64516000Y-107696000D01*
X64008000Y-112916000D02*
X64008000Y-108204000D01*
%TO.N,Net-(D6-Pad6)*%
X64692000Y-105996000D02*
X65672000Y-105996000D01*
X62308000Y-108380000D02*
X64692000Y-105996000D01*
X62308000Y-112916000D02*
X62308000Y-108380000D01*
%TO.N,Net-(D7-Pad5)*%
X72136000Y-108910000D02*
X70922000Y-107696000D01*
X72136000Y-111958000D02*
X72136000Y-108910000D01*
X71628000Y-112466000D02*
X72136000Y-111958000D01*
X70922000Y-107696000D02*
X70472000Y-107696000D01*
X71628000Y-112916000D02*
X71628000Y-112466000D01*
%TO.N,Net-(D3-Pad5)*%
X54450000Y-107696000D02*
X53200000Y-107696000D01*
X54864000Y-108110000D02*
X54450000Y-107696000D01*
X54864000Y-112916000D02*
X54864000Y-108110000D01*
%TO.N,Net-(D3-Pad6)*%
X54450000Y-105996000D02*
X53200000Y-105996000D01*
X56564000Y-108110000D02*
X54450000Y-105996000D01*
X56564000Y-112916000D02*
X56564000Y-108110000D01*
%TO.N,Net-(D7-Pad6)*%
X73328000Y-107602000D02*
X71722000Y-105996000D01*
X71722000Y-105996000D02*
X70472000Y-105996000D01*
X73328000Y-112916000D02*
X73328000Y-107602000D01*
%TO.N,Net-(D2-Pad5)*%
X47752000Y-107696000D02*
X48400000Y-107696000D01*
X46736000Y-108712000D02*
X47752000Y-107696000D01*
X46736000Y-111958000D02*
X46736000Y-108712000D01*
X47244000Y-112466000D02*
X46736000Y-111958000D01*
X47244000Y-112916000D02*
X47244000Y-112466000D01*
%TO.N,Net-(D2-Pad6)*%
X47150000Y-105996000D02*
X48400000Y-105996000D01*
X45544000Y-107602000D02*
X47150000Y-105996000D01*
X45544000Y-112916000D02*
X45544000Y-107602000D01*
%TO.N,Net-(ATmega168V-10PI1-Pad1)*%
X54610000Y-149860000D02*
X54620000Y-149870000D01*
X30480000Y-172720000D02*
X31770000Y-172720000D01*
X54620000Y-149870000D02*
X50810000Y-149870000D01*
X31770000Y-172720000D02*
X54620000Y-149870000D01*
X50810000Y-149870000D02*
X50800000Y-149860000D01*
%TO.N,Net-(ATmega168V-10PI1-Pad2)*%
X34290000Y-171450000D02*
X34290000Y-173990000D01*
X43180000Y-162560000D02*
X44450000Y-162560000D01*
X44450000Y-162560000D02*
X54610000Y-152400000D01*
X34290000Y-173990000D02*
X33020000Y-175260000D01*
X43180000Y-162560000D02*
X34290000Y-171450000D01*
X54610000Y-152400000D02*
X54620000Y-152410000D01*
X33020000Y-175260000D02*
X30480000Y-175260000D01*
%TO.N,Net-(ATmega168V-10PI1-Pad3)*%
X35560000Y-171450000D02*
X35560000Y-176530000D01*
X41910000Y-165100000D02*
X44450000Y-165100000D01*
X34290000Y-177800000D02*
X30480000Y-177800000D01*
X41910000Y-165100000D02*
X35560000Y-171450000D01*
X44450000Y-165100000D02*
X54610000Y-154940000D01*
X54610000Y-154940000D02*
X54620000Y-154950000D01*
X35560000Y-176530000D02*
X34290000Y-177800000D01*
D22*
%TO.N,Net-(ATmega168V-10PI1-Pad20)*%
X67310000Y-176530000D02*
X68580000Y-176530000D01*
X68580000Y-176530000D02*
X76200000Y-176530000D01*
X78740000Y-176530000D02*
X79375000Y-177165000D01*
X36830000Y-171450000D02*
X40640000Y-167640000D01*
X40640000Y-161925000D02*
X40640000Y-149860000D01*
X40640000Y-167640000D02*
X45720000Y-167640000D01*
X27940000Y-181610000D02*
X27940000Y-170815000D01*
X39370000Y-186690000D02*
X62230000Y-186690000D01*
X82550000Y-184150000D02*
X90805000Y-184150000D01*
X48250000Y-165110000D02*
X54620000Y-165110000D01*
X35560000Y-182880000D02*
X39370000Y-186690000D01*
X64770000Y-179070000D02*
X67310000Y-176530000D01*
X64770000Y-184150000D02*
X64770000Y-179070000D01*
D23*
X54610000Y-165100000D02*
X54620000Y-165110000D01*
D22*
X92075000Y-160020000D02*
X92075000Y-168910000D01*
X62230000Y-186690000D02*
X64770000Y-184150000D01*
X92075000Y-182880000D02*
X92075000Y-181610000D01*
X30480000Y-182880000D02*
X29210000Y-182880000D01*
D23*
X80010000Y-181610000D02*
X79375000Y-180975000D01*
D22*
X90805000Y-184150000D02*
X92075000Y-182880000D01*
X76200000Y-176530000D02*
X78740000Y-176530000D01*
X62240000Y-167650000D02*
X62240000Y-170190000D01*
X45720000Y-167640000D02*
X48250000Y-165110000D01*
X68580000Y-176530000D02*
X62240000Y-170190000D01*
X36830000Y-181610000D02*
X36830000Y-171450000D01*
X27940000Y-170815000D02*
X28575000Y-170180000D01*
X29210000Y-182880000D02*
X27940000Y-181610000D01*
X36830000Y-181610000D02*
X35560000Y-182880000D01*
X79375000Y-180975000D02*
X82550000Y-184150000D01*
X92075000Y-181610000D02*
X92075000Y-168910000D01*
X79375000Y-180975000D02*
X79375000Y-177165000D01*
X92075000Y-160020000D02*
X92075000Y-151130000D01*
X35560000Y-182880000D02*
X30480000Y-182880000D01*
D23*
%TO.N,Net-(ATmega168V-10PI1-Pad9)*%
X49540000Y-170190000D02*
X49530000Y-170180000D01*
X42000000Y-172720000D02*
X44530000Y-170190000D01*
X41910000Y-177840000D02*
X41910000Y-172810000D01*
X44460000Y-170190000D02*
X54620000Y-170190000D01*
%TO.N,Net-(ATmega168V-10PI1-Pad10)*%
X54610000Y-172720000D02*
X54620000Y-172730000D01*
X54620000Y-172730000D02*
X46890000Y-172730000D01*
X46990000Y-172810000D02*
X47080000Y-172720000D01*
X46880000Y-172720000D02*
X46880000Y-177730000D01*
X51970000Y-172730000D02*
X51960000Y-172720000D01*
%TO.N,Net-(ATmega168V-10PI1-Pad23)*%
X64770000Y-168910000D02*
X67310000Y-171450000D01*
X86995000Y-181610000D02*
X81915000Y-181610000D01*
X64770000Y-167640000D02*
X64770000Y-168910000D01*
X81915000Y-181610000D02*
X80645000Y-180340000D01*
X66040000Y-168910000D02*
X64770000Y-167640000D01*
X62250000Y-162560000D02*
X62240000Y-162570000D01*
X64770000Y-165100000D02*
X64770000Y-167640000D01*
X78740000Y-168910000D02*
X66040000Y-168910000D01*
X62240000Y-162570000D02*
X64770000Y-165100000D01*
X80645000Y-180340000D02*
X80645000Y-170815000D01*
X80645000Y-170815000D02*
X78740000Y-168910000D01*
%TO.N,Net-(ATmega168V-10PI1-Pad24)*%
X81280000Y-168910000D02*
X86995000Y-168910000D01*
X62240000Y-160030000D02*
X66040000Y-163830000D01*
X80010000Y-165100000D02*
X78740000Y-163830000D01*
X80010000Y-167640000D02*
X80010000Y-165100000D01*
X66040000Y-163830000D02*
X67310000Y-165100000D01*
X81280000Y-168910000D02*
X80010000Y-167640000D01*
X78740000Y-163830000D02*
X66040000Y-163830000D01*
X62250000Y-160020000D02*
X62240000Y-160030000D01*
X67310000Y-165100000D02*
X67310000Y-166370000D01*
%TO.N,Net-(G1-Pad1)*%
X78740000Y-158750000D02*
X80010000Y-160020000D01*
X86995000Y-160020000D02*
X80010000Y-160020000D01*
X67310000Y-161290000D02*
X64770000Y-158750000D01*
X62240000Y-157490000D02*
X63510000Y-157490000D01*
X62250000Y-157480000D02*
X62240000Y-157490000D01*
X63510000Y-157490000D02*
X64770000Y-158750000D01*
X64770000Y-158750000D02*
X78740000Y-158750000D01*
%TO.N,Net-(R6-Pad1)*%
X62240000Y-154950000D02*
X64780000Y-154950000D01*
X68580000Y-151150000D02*
X68580000Y-151130000D01*
X66050000Y-154950000D02*
X67310000Y-156210000D01*
X64780000Y-154950000D02*
X68580000Y-151150000D01*
X64780000Y-154950000D02*
X66050000Y-154950000D01*
X86995000Y-151130000D02*
X68580000Y-151130000D01*
X62250000Y-154940000D02*
X62240000Y-154950000D01*
D22*
%TO.N,Net-(C1-Pad1)*%
X66040000Y-187960000D02*
X68580000Y-185420000D01*
D23*
X26670000Y-181610000D02*
X26670000Y-180340000D01*
D22*
X31750000Y-187960000D02*
X66040000Y-187960000D01*
D23*
X26670000Y-179070000D02*
X26670000Y-177800000D01*
D22*
X76200000Y-181610000D02*
X74930000Y-181610000D01*
X74930000Y-181610000D02*
X71120000Y-185420000D01*
X31750000Y-187960000D02*
X26670000Y-182880000D01*
X26670000Y-158115000D02*
X30480000Y-154305000D01*
X26670000Y-182880000D02*
X26670000Y-181610000D01*
X71120000Y-185420000D02*
X68580000Y-185420000D01*
D23*
X26670000Y-180340000D02*
X26670000Y-179070000D01*
%TD*%
M02*
